{
	"asset":{
		"generator":"Khronos glTF Blender I/O v3.6.27",
		"version":"2.0"
	},
	"scene":0,
	"scenes":[
		{
			"name":"Scene",
			"nodes":[
				0,
				1,
				2,
				3,
				4,
				5,
				6,
				7,
				8,
				9
			]
		}
	],
	"nodes":[
		{
			"mesh":0,
			"name":"Cylinder",
			"translation":[
				-9.439417839050293,
				-9.450203895568848,
				9
			]
		},
		{
			"mesh":1,
			"name":"Cylinder.001",
			"translation":[
				-9.439417839050293,
				-9.450203895568848,
				9
			]
		},
		{
			"mesh":2,
			"name":"Cube",
			"translation":[
				-9.439417839050293,
				-5.450203895568848,
				15
			]
		},
		{
			"mesh":3,
			"name":"Cube.001",
			"translation":[
				-9.439417839050293,
				-9.450203895568848,
				15
			]
		},
		{
			"mesh":3,
			"name":"Cube.002",
			"rotation":[
				1,
				0,
				0,
				0
			],
			"scale":[
				-1,
				-1,
				-1
			],
			"translation":[
				-9.439417839050293,
				-9.450203895568848,
				15
			]
		},
		{
			"mesh":2,
			"name":"Cube.003",
			"rotation":[
				0,
				1,
				0,
				0
			],
			"scale":[
				-1,
				-1,
				-1
			],
			"translation":[
				-9.439417839050293,
				-13.450203895568848,
				15
			]
		},
		{
			"mesh":3,
			"name":"Cube.004",
			"rotation":[
				0,
				1,
				0,
				0
			],
			"scale":[
				-1,
				-1,
				-1
			],
			"translation":[
				-9.439417839050293,
				-9.450203895568848,
				15
			]
		},
		{
			"mesh":3,
			"name":"Cube.005",
			"rotation":[
				0,
				0,
				-1,
				0
			],
			"translation":[
				-9.439417839050293,
				-9.450203895568848,
				15
			]
		},
		{
			"mesh":2,
			"name":"Cube.006",
			"rotation":[
				0,
				0,
				-0.7071068286895752,
				0.7071068286895752
			],
			"translation":[
				-5.439417839050293,
				-9.450203895568848,
				15
			]
		},
		{
			"mesh":2,
			"name":"Cube.007",
			"rotation":[
				0.7071068286895752,
				0.7071068286895752,
				0,
				0
			],
			"scale":[
				-1,
				-1,
				-1
			],
			"translation":[
				-13.439417839050293,
				-9.450203895568848,
				15
			]
		}
	],
	"materials":[
		{
			"doubleSided":true,
			"emissiveFactor":[
				0,
				0.032253339886665344,
				1
			],
			"name":"cannon",
			"pbrMetallicRoughness":{
				"baseColorFactor":[
					0,
					0,
					0,
					1
				]
			}
		}
	],
	"meshes":[
		{
			"name":"Cylinder",
			"primitives":[
				{
					"attributes":{
						"POSITION":0,
						"NORMAL":1,
						"TEXCOORD_0":2
					},
					"indices":3,
					"material":0
				}
			]
		},
		{
			"name":"Cylinder.001",
			"primitives":[
				{
					"attributes":{
						"POSITION":4,
						"NORMAL":5,
						"TEXCOORD_0":6
					},
					"indices":7,
					"material":0
				}
			]
		},
		{
			"name":"Cube",
			"primitives":[
				{
					"attributes":{
						"POSITION":8,
						"NORMAL":9,
						"TEXCOORD_0":10
					},
					"indices":11,
					"material":0
				}
			]
		},
		{
			"name":"Cube.001",
			"primitives":[
				{
					"attributes":{
						"POSITION":12,
						"NORMAL":13,
						"TEXCOORD_0":14
					},
					"indices":15,
					"material":0
				}
			]
		}
	],
	"accessors":[
		{
			"bufferView":0,
			"componentType":5126,
			"count":194,
			"max":[
				4.086992263793945,
				4.086997985839844,
				8.5
			],
			"min":[
				-4.086997032165527,
				-4.086991310119629,
				1.5
			],
			"type":"VEC3"
		},
		{
			"bufferView":1,
			"componentType":5126,
			"count":194,
			"type":"VEC3"
		},
		{
			"bufferView":2,
			"componentType":5126,
			"count":194,
			"type":"VEC2"
		},
		{
			"bufferView":3,
			"componentType":5123,
			"count":324,
			"type":"SCALAR"
		},
		{
			"bufferView":4,
			"componentType":5126,
			"count":48,
			"max":[
				4.086992263793945,
				4.086997985839844,
				3.5
			],
			"min":[
				-4.086997032165527,
				-4.086991310119629,
				-8.5
			],
			"type":"VEC3"
		},
		{
			"bufferView":5,
			"componentType":5126,
			"count":48,
			"type":"VEC3"
		},
		{
			"bufferView":6,
			"componentType":5126,
			"count":48,
			"type":"VEC2"
		},
		{
			"bufferView":7,
			"componentType":5123,
			"count":84,
			"type":"SCALAR"
		},
		{
			"bufferView":8,
			"componentType":5126,
			"count":66,
			"max":[
				1.27981698513031,
				1.0608123540878296,
				1.4097259044647217
			],
			"min":[
				-1.27981698513031,
				-4,
				-2.338254451751709
			],
			"type":"VEC3"
		},
		{
			"bufferView":9,
			"componentType":5126,
			"count":66,
			"type":"VEC3"
		},
		{
			"bufferView":10,
			"componentType":5126,
			"count":66,
			"type":"VEC2"
		},
		{
			"bufferView":11,
			"componentType":5123,
			"count":108,
			"type":"SCALAR"
		},
		{
			"bufferView":12,
			"componentType":5126,
			"count":98,
			"max":[
				0.41421353816986084,
				3.9725799560546875,
				1.2711913585662842
			],
			"min":[
				-3.9725794792175293,
				-0.41421353816986084,
				-2.1821036338806152
			],
			"type":"VEC3"
		},
		{
			"bufferView":13,
			"componentType":5126,
			"count":98,
			"type":"VEC3"
		},
		{
			"bufferView":14,
			"componentType":5126,
			"count":98,
			"type":"VEC2"
		},
		{
			"bufferView":15,
			"componentType":5123,
			"count":156,
			"type":"SCALAR"
		}
	],
	"bufferViews":[
		{
			"buffer":0,
			"byteLength":2328,
			"byteOffset":0,
			"target":34962
		},
		{
			"buffer":0,
			"byteLength":2328,
			"byteOffset":2328,
			"target":34962
		},
		{
			"buffer":0,
			"byteLength":1552,
			"byteOffset":4656,
			"target":34962
		},
		{
			"buffer":0,
			"byteLength":648,
			"byteOffset":6208,
			"target":34963
		},
		{
			"buffer":0,
			"byteLength":576,
			"byteOffset":6856,
			"target":34962
		},
		{
			"buffer":0,
			"byteLength":576,
			"byteOffset":7432,
			"target":34962
		},
		{
			"buffer":0,
			"byteLength":384,
			"byteOffset":8008,
			"target":34962
		},
		{
			"buffer":0,
			"byteLength":168,
			"byteOffset":8392,
			"target":34963
		},
		{
			"buffer":0,
			"byteLength":792,
			"byteOffset":8560,
			"target":34962
		},
		{
			"buffer":0,
			"byteLength":792,
			"byteOffset":9352,
			"target":34962
		},
		{
			"buffer":0,
			"byteLength":528,
			"byteOffset":10144,
			"target":34962
		},
		{
			"buffer":0,
			"byteLength":216,
			"byteOffset":10672,
			"target":34963
		},
		{
			"buffer":0,
			"byteLength":1176,
			"byteOffset":10888,
			"target":34962
		},
		{
			"buffer":0,
			"byteLength":1176,
			"byteOffset":12064,
			"target":34962
		},
		{
			"buffer":0,
			"byteLength":784,
			"byteOffset":13240,
			"target":34962
		},
		{
			"buffer":0,
			"byteLength":312,
			"byteOffset":14024,
			"target":34963
		}
	],
	"buffers":[
		{
			"byteLength":14336,
			"uri":"data:application/octet-stream;base64,"
		}
	]
}
