{
	"asset":{
		"generator":"Khronos glTF Blender I/O v3.6.27",
		"version":"2.0"
	},
	"scene":0,
	"scenes":[
		{
			"name":"Scene",
			"nodes":[
				0,
				1,
				2,
				3
			]
		}
	],
	"nodes":[
		{
			"mesh":0,
			"name":"round_bullet"
		},
		{
			"mesh":1,
			"name":"cone_bullet",
			"translation":[
				0,
				0,
				4
			]
		},
		{
			"mesh":2,
			"name":"cylinder_bullet",
			"translation":[
				0,
				0,
				-4
			]
		},
		{
			"mesh":3,
			"name":"Sphere",
			"translation":[
				0,
				0,
				-7
			]
		}
	],
	"meshes":[
		{
			"name":"round_bullet",
			"primitives":[
				{
					"attributes":{
						"POSITION":0,
						"NORMAL":1,
						"TEXCOORD_0":2
					},
					"indices":3
				}
			]
		},
		{
			"name":"cone_bullet",
			"primitives":[
				{
					"attributes":{
						"POSITION":4,
						"NORMAL":5,
						"TEXCOORD_0":6
					},
					"indices":7
				}
			]
		},
		{
			"name":"cylinder_bullet",
			"primitives":[
				{
					"attributes":{
						"POSITION":8,
						"NORMAL":9,
						"TEXCOORD_0":10
					},
					"indices":11
				}
			]
		},
		{
			"name":"inpact",
			"primitives":[
				{
					"attributes":{
						"POSITION":12,
						"NORMAL":13,
						"TEXCOORD_0":14
					},
					"indices":15
				}
			]
		}
	],
	"accessors":[
		{
			"bufferView":0,
			"componentType":5126,
			"count":112,
			"max":[
				0.9999999403953552,
				1,
				0.9999998807907104
			],
			"min":[
				-0.9999998807907104,
				-1,
				-0.9999998807907104
			],
			"type":"VEC3"
		},
		{
			"bufferView":1,
			"componentType":5126,
			"count":112,
			"type":"VEC3"
		},
		{
			"bufferView":2,
			"componentType":5126,
			"count":112,
			"type":"VEC2"
		},
		{
			"bufferView":3,
			"componentType":5123,
			"count":144,
			"type":"SCALAR"
		},
		{
			"bufferView":4,
			"componentType":5126,
			"count":12,
			"max":[
				0.8660253286361694,
				0.8207114934921265,
				1.5
			],
			"min":[
				-0.8660253286361694,
				-0.6792885065078735,
				-0.5
			],
			"type":"VEC3"
		},
		{
			"bufferView":5,
			"componentType":5126,
			"count":12,
			"type":"VEC3"
		},
		{
			"bufferView":6,
			"componentType":5126,
			"count":12,
			"type":"VEC2"
		},
		{
			"bufferView":7,
			"componentType":5123,
			"count":12,
			"type":"SCALAR"
		},
		{
			"bufferView":8,
			"componentType":5126,
			"count":48,
			"max":[
				0.49757692217826843,
				0.47709235548973083,
				1.0251538753509521
			],
			"min":[
				-0.49757686257362366,
				-0.47709229588508606,
				-1.0251538753509521
			],
			"type":"VEC3"
		},
		{
			"bufferView":9,
			"componentType":5126,
			"count":48,
			"type":"VEC3"
		},
		{
			"bufferView":10,
			"componentType":5126,
			"count":48,
			"type":"VEC2"
		},
		{
			"bufferView":11,
			"componentType":5123,
			"count":84,
			"type":"SCALAR"
		},
		{
			"bufferView":12,
			"componentType":5126,
			"count":240,
			"max":[
				2.852167844772339,
				3.0727920532226562,
				2.7913362979888916
			],
			"min":[
				-2.852168083190918,
				-3.0727925300598145,
				-2.7913362979888916
			],
			"type":"VEC3"
		},
		{
			"bufferView":13,
			"componentType":5126,
			"count":240,
			"type":"VEC3"
		},
		{
			"bufferView":14,
			"componentType":5126,
			"count":240,
			"type":"VEC2"
		},
		{
			"bufferView":15,
			"componentType":5123,
			"count":288,
			"type":"SCALAR"
		}
	],
	"bufferViews":[
		{
			"buffer":0,
			"byteLength":1344,
			"byteOffset":0,
			"target":34962
		},
		{
			"buffer":0,
			"byteLength":1344,
			"byteOffset":1344,
			"target":34962
		},
		{
			"buffer":0,
			"byteLength":896,
			"byteOffset":2688,
			"target":34962
		},
		{
			"buffer":0,
			"byteLength":288,
			"byteOffset":3584,
			"target":34963
		},
		{
			"buffer":0,
			"byteLength":144,
			"byteOffset":3872,
			"target":34962
		},
		{
			"buffer":0,
			"byteLength":144,
			"byteOffset":4016,
			"target":34962
		},
		{
			"buffer":0,
			"byteLength":96,
			"byteOffset":4160,
			"target":34962
		},
		{
			"buffer":0,
			"byteLength":24,
			"byteOffset":4256,
			"target":34963
		},
		{
			"buffer":0,
			"byteLength":576,
			"byteOffset":4280,
			"target":34962
		},
		{
			"buffer":0,
			"byteLength":576,
			"byteOffset":4856,
			"target":34962
		},
		{
			"buffer":0,
			"byteLength":384,
			"byteOffset":5432,
			"target":34962
		},
		{
			"buffer":0,
			"byteLength":168,
			"byteOffset":5816,
			"target":34963
		},
		{
			"buffer":0,
			"byteLength":2880,
			"byteOffset":5984,
			"target":34962
		},
		{
			"buffer":0,
			"byteLength":2880,
			"byteOffset":8864,
			"target":34962
		},
		{
			"buffer":0,
			"byteLength":1920,
			"byteOffset":11744,
			"target":34962
		},
		{
			"buffer":0,
			"byteLength":576,
			"byteOffset":13664,
			"target":34963
		}
	],
	"buffers":[
		{
			"byteLength":14240,
			"uri":"data:application/octet-stream;base64,"
		}
	]
}
