{
	"asset":{
		"generator":"Khronos glTF Blender I/O v3.6.27",
		"version":"2.0"
	},
	"scene":0,
	"scenes":[
		{
			"name":"Scene",
			"nodes":[
				0,
				1,
				2,
				3,
				4,
				5,
				7,
				8,
				9,
				10,
				11,
				12,
				13,
				14,
				15,
				16,
				17,
				18,
				19,
				20,
				21,
				22,
				23,
				24,
				25,
				26,
				27,
				28,
				29,
				30,
				31,
				32,
				33,
				34,
				35,
				36,
				37,
				38,
				39,
				40
			]
		}
	],
	"nodes":[
		{
			"extras":{
				"type":"player_start"
			},
			"name":"Empty",
			"translation":[
				0,
				37,
				0
			]
		},
		{
			"extras":{
				"type":"sb"
			},
			"mesh":0,
			"name":"Plane.002",
			"translation":[
				-20,
				0,
				-20
			]
		},
		{
			"extras":{
				"type":"sb"
			},
			"mesh":1,
			"name":"Cube.003",
			"translation":[
				0,
				0,
				-20
			]
		},
		{
			"extras":{
				"type":"sb"
			},
			"mesh":1,
			"name":"Cube.004"
		},
		{
			"extras":{
				"type":"sb"
			},
			"mesh":2,
			"name":"Plane.001",
			"rotation":[
				0,
				-0.7071068286895752,
				0,
				0.7071068286895752
			],
			"translation":[
				-40,
				10,
				-40
			]
		},
		{
			"extras":{
				"sound_source":"music_test_1",
				"type":"music"
			},
			"mesh":3,
			"name":"Cube",
			"translation":[
				9,
				2,
				-27
			]
		},
		{
			"mesh":4,
			"name":"wire_frame"
		},
		{
			"children":[
				6
			],
			"extras":{
				"type":"passage",
				"passage_target":"test_map"
			},
			"mesh":5,
			"name":"exit_triger",
			"scale":[
				1.512597918510437,
				5.617700576782227,
				5.617700576782227
			],
			"translation":[
				-47,
				15,
				-19
			]
		},
		{
			"extras":{
				"type":"mensage",
				"mensage":"hello world",
				"mensage_index":"signals:hello"
			},
			"mesh":6,
			"name":"Cube.002",
			"rotation":[
				0,
				0.7071068286895752,
				0,
				0.7071068286895752
			],
			"translation":[
				-48.959686279296875,
				29,
				-15.242286682128906
			]
		},
		{
			"extras":{
				"type":"rb"
			},
			"mesh":7,
			"name":"Cube.005",
			"translation":[
				0,
				1,
				-29
			]
		},
		{
			"extras":{
				"type":"rb"
			},
			"mesh":7,
			"name":"Cube.006",
			"translation":[
				-2,
				1,
				-29
			]
		},
		{
			"extras":{
				"type":"rb"
			},
			"mesh":7,
			"name":"Cube.007",
			"translation":[
				-1,
				3,
				-29
			]
		},
		{
			"extras":{
				"type":"sb"
			},
			"mesh":8,
			"name":"Plane",
			"translation":[
				0,
				35,
				0
			]
		},
		{
			"mesh":9,
			"name":"Plane.005",
			"translation":[
				0,
				-7,
				0
			]
		},
		{
			"extras":{
				"type":"sb"
			},
			"mesh":1,
			"name":"Cube.001",
			"translation":[
				-40,
				10,
				-20
			]
		},
		{
			"extras":{
				"type":"sb"
			},
			"mesh":1,
			"name":"Cube.008",
			"translation":[
				-40,
				20,
				-60
			]
		},
		{
			"extras":{
				"type":"sb"
			},
			"mesh":10,
			"name":"Plane.003",
			"translation":[
				0,
				152,
				0
			]
		},
		{
			"extras":{
				"type":"rb"
			},
			"mesh":7,
			"name":"Cube.009",
			"translation":[
				-21.983877182006836,
				37.45454788208008,
				-22.005260467529297
			]
		},
		{
			"extras":{
				"type":"rb"
			},
			"mesh":7,
			"name":"Cube.010",
			"translation":[
				-23.983877182006836,
				37.45454788208008,
				-22.005260467529297
			]
		},
		{
			"extras":{
				"type":"rb"
			},
			"mesh":7,
			"name":"Cube.011",
			"translation":[
				-22.983877182006836,
				39.45454788208008,
				-22.005260467529297
			]
		},
		{
			"extras":{
				"type":"rb"
			},
			"mesh":7,
			"name":"Cube.012",
			"translation":[
				-27.927431106567383,
				39.80479431152344,
				-23.03690528869629
			]
		},
		{
			"extras":{
				"type":"rb"
			},
			"mesh":7,
			"name":"Cube.013",
			"translation":[
				-29.927431106567383,
				39.80479431152344,
				-23.03690528869629
			]
		},
		{
			"extras":{
				"type":"rb"
			},
			"mesh":7,
			"name":"Cube.014",
			"translation":[
				-28.927431106567383,
				41.80479431152344,
				-23.03690528869629
			]
		},
		{
			"extras":{
				"type":"rb"
			},
			"mesh":7,
			"name":"Cube.015",
			"translation":[
				-17.443897247314453,
				42.579776763916016,
				-24.728113174438477
			]
		},
		{
			"extras":{
				"type":"rb"
			},
			"mesh":7,
			"name":"Cube.016",
			"translation":[
				-19.443897247314453,
				42.579776763916016,
				-24.728113174438477
			]
		},
		{
			"extras":{
				"type":"rb"
			},
			"mesh":7,
			"name":"Cube.017",
			"translation":[
				-18.443897247314453,
				44.579776763916016,
				-24.728113174438477
			]
		},
		{
			"extras":{
				"type":"rb"
			},
			"mesh":7,
			"name":"Cube.018",
			"translation":[
				-22.48164939880371,
				46.41661834716797,
				-26.538421630859375
			]
		},
		{
			"extras":{
				"type":"rb"
			},
			"mesh":7,
			"name":"Cube.019",
			"translation":[
				-24.48164939880371,
				46.41661834716797,
				-26.538421630859375
			]
		},
		{
			"extras":{
				"type":"rb"
			},
			"mesh":7,
			"name":"Cube.020",
			"translation":[
				-23.48164939880371,
				48.41661834716797,
				-26.538421630859375
			]
		},
		{
			"extras":{
				"type":"rb"
			},
			"mesh":7,
			"name":"Cube.021",
			"translation":[
				-15.339776992797852,
				48.12979507446289,
				-27.600618362426758
			]
		},
		{
			"extras":{
				"type":"rb"
			},
			"mesh":7,
			"name":"Cube.022",
			"translation":[
				-17.33977699279785,
				48.12979507446289,
				-27.600618362426758
			]
		},
		{
			"extras":{
				"type":"rb"
			},
			"mesh":7,
			"name":"Cube.023",
			"translation":[
				-16.33977699279785,
				50.12979507446289,
				-27.600618362426758
			]
		},
		{
			"extras":{
				"type":"rb"
			},
			"mesh":7,
			"name":"Cube.024",
			"translation":[
				-30.083723068237305,
				45.52116012573242,
				-25.878625869750977
			]
		},
		{
			"extras":{
				"type":"rb"
			},
			"mesh":7,
			"name":"Cube.025",
			"translation":[
				-32.08372497558594,
				45.52116012573242,
				-25.878625869750977
			]
		},
		{
			"extras":{
				"type":"rb"
			},
			"mesh":7,
			"name":"Cube.026",
			"translation":[
				-31.083723068237305,
				47.52116012573242,
				-25.878625869750977
			]
		},
		{
			"extras":{
				"type":"rb"
			},
			"mesh":7,
			"name":"Cube.027",
			"translation":[
				-22.919286727905273,
				42.34767150878906,
				-24.46234130859375
			]
		},
		{
			"extras":{
				"type":"rb"
			},
			"mesh":7,
			"name":"Cube.028",
			"translation":[
				-24.919288635253906,
				42.34767150878906,
				-24.46234130859375
			]
		},
		{
			"extras":{
				"type":"rb"
			},
			"mesh":7,
			"name":"Cube.029",
			"translation":[
				-23.919286727905273,
				44.34767150878906,
				-24.46234130859375
			]
		},
		{
			"extras":{
				"type":"rb"
			},
			"mesh":7,
			"name":"Cube.030",
			"translation":[
				-33.563785552978516,
				41.474124908447266,
				-23.731414794921875
			]
		},
		{
			"extras":{
				"type":"rb"
			},
			"mesh":7,
			"name":"Cube.031",
			"translation":[
				-35.563785552978516,
				41.474124908447266,
				-23.731414794921875
			]
		},
		{
			"extras":{
				"type":"rb"
			},
			"mesh":7,
			"name":"Cube.032",
			"translation":[
				-34.563785552978516,
				43.474124908447266,
				-23.731414794921875
			]
		}
	],
	"materials":[
		{
			"doubleSided":true,
			"name":"cenart",
			"pbrMetallicRoughness":{
				"baseColorTexture":{
					"index":0
				},
				"metallicFactor":0,
				"roughnessFactor":0.5
			}
		},
		{
			"doubleSided":true,
			"name":"green",
			"pbrMetallicRoughness":{
				"baseColorFactor":[
					0.0034884619526565075,
					0.8000000715255737,
					0,
					1
				],
				"metallicFactor":0,
				"roughnessFactor":0.5
			}
		},
		{
			"alphaMode":"BLEND",
			"doubleSided":true,
			"name":"triger",
			"pbrMetallicRoughness":{
				"baseColorFactor":[
					1,
					1,
					0,
					0.14507770538330078
				],
				"metallicFactor":0,
				"roughnessFactor":0.5
			}
		},
		{
			"doubleSided":true,
			"name":"rigid boady",
			"pbrMetallicRoughness":{
				"baseColorFactor":[
					0,
					0.5,
					0.004308280069380999,
					1
				],
				"baseColorTexture":{
					"index":1
				},
				"metallicFactor":0,
				"roughnessFactor":0.5
			}
		},
		{
			"doubleSided":true,
			"name":"hub_walls",
			"pbrMetallicRoughness":{
				"baseColorTexture":{
					"index":2
				},
				"metallicFactor":0,
				"roughnessFactor":0.5
			}
		}
	],
	"meshes":[
		{
			"name":"Plane.001",
			"primitives":[
				{
					"attributes":{
						"POSITION":0,
						"NORMAL":1,
						"TEXCOORD_0":2
					},
					"indices":3,
					"material":0
				}
			]
		},
		{
			"name":"Cube.001",
			"primitives":[
				{
					"attributes":{
						"POSITION":4,
						"NORMAL":5,
						"TEXCOORD_0":6
					},
					"indices":7,
					"material":0
				}
			]
		},
		{
			"name":"Plane.003",
			"primitives":[
				{
					"attributes":{
						"POSITION":8,
						"NORMAL":9,
						"TEXCOORD_0":10
					},
					"indices":11,
					"material":0
				}
			]
		},
		{
			"name":"Cube",
			"primitives":[
				{
					"attributes":{
						"POSITION":12,
						"NORMAL":13,
						"TEXCOORD_0":14
					},
					"indices":15
				}
			]
		},
		{
			"name":"Cube.005",
			"primitives":[
				{
					"attributes":{
						"POSITION":16,
						"NORMAL":17,
						"TEXCOORD_0":18
					},
					"indices":15,
					"material":1
				}
			]
		},
		{
			"name":"Cube.002",
			"primitives":[
				{
					"attributes":{
						"POSITION":19,
						"NORMAL":20,
						"TEXCOORD_0":21
					},
					"indices":7,
					"material":2
				}
			]
		},
		{
			"name":"Cube.003",
			"primitives":[
				{
					"attributes":{
						"POSITION":22,
						"NORMAL":23,
						"TEXCOORD_0":24
					},
					"indices":25
				}
			]
		},
		{
			"name":"Cube.007",
			"primitives":[
				{
					"attributes":{
						"POSITION":26,
						"NORMAL":27,
						"TEXCOORD_0":28
					},
					"indices":7,
					"material":3
				}
			]
		},
		{
			"name":"Plane.005",
			"primitives":[
				{
					"attributes":{
						"POSITION":29,
						"NORMAL":30,
						"TEXCOORD_0":31
					},
					"indices":32,
					"material":4
				}
			]
		},
		{
			"name":"Plane.002",
			"primitives":[
				{
					"attributes":{
						"POSITION":33,
						"NORMAL":34,
						"TEXCOORD_0":35
					},
					"indices":36
				}
			]
		},
		{
			"name":"Plane.005",
			"primitives":[
				{
					"attributes":{
						"POSITION":37,
						"NORMAL":38,
						"TEXCOORD_0":39
					},
					"indices":40,
					"material":4
				}
			]
		}
	],
	"textures":[
		{
			"sampler":0,
			"source":0
		},
		{
			"sampler":0,
			"source":0
		},
		{
			"sampler":0,
			"source":0
		}
	],
	"images":[
		{
			"bufferView":4,
			"mimeType":"image/png",
			"name":"null"
		}
	],
	"accessors":[
		{
			"bufferView":0,
			"componentType":5126,
			"count":24,
			"max":[
				10,
				10,
				10
			],
			"min":[
				-10,
				-1,
				-10
			],
			"type":"VEC3"
		},
		{
			"bufferView":1,
			"componentType":5126,
			"count":24,
			"type":"VEC3"
		},
		{
			"bufferView":2,
			"componentType":5126,
			"count":24,
			"type":"VEC2"
		},
		{
			"bufferView":3,
			"componentType":5123,
			"count":36,
			"type":"SCALAR"
		},
		{
			"bufferView":5,
			"componentType":5126,
			"count":24,
			"max":[
				10,
				0,
				10
			],
			"min":[
				-10,
				-2,
				-10
			],
			"type":"VEC3"
		},
		{
			"bufferView":6,
			"componentType":5126,
			"count":24,
			"type":"VEC3"
		},
		{
			"bufferView":7,
			"componentType":5126,
			"count":24,
			"type":"VEC2"
		},
		{
			"bufferView":8,
			"componentType":5123,
			"count":36,
			"type":"SCALAR"
		},
		{
			"bufferView":9,
			"componentType":5126,
			"count":67,
			"max":[
				10,
				10,
				10
			],
			"min":[
				-10,
				-1,
				-10
			],
			"type":"VEC3"
		},
		{
			"bufferView":10,
			"componentType":5126,
			"count":67,
			"type":"VEC3"
		},
		{
			"bufferView":11,
			"componentType":5126,
			"count":67,
			"type":"VEC2"
		},
		{
			"bufferView":12,
			"componentType":5123,
			"count":135,
			"type":"SCALAR"
		},
		{
			"bufferView":13,
			"componentType":5126,
			"count":192,
			"max":[
				1.1019023656845093,
				1.1019023656845093,
				1.1019023656845093
			],
			"min":[
				-1.1019023656845093,
				-1.1019023656845093,
				-1.1019023656845093
			],
			"type":"VEC3"
		},
		{
			"bufferView":14,
			"componentType":5126,
			"count":192,
			"type":"VEC3"
		},
		{
			"bufferView":15,
			"componentType":5126,
			"count":192,
			"type":"VEC2"
		},
		{
			"bufferView":16,
			"componentType":5123,
			"count":288,
			"type":"SCALAR"
		},
		{
			"bufferView":17,
			"componentType":5126,
			"count":192,
			"max":[
				1.028867483139038,
				1.028867483139038,
				1.028867483139038
			],
			"min":[
				-1.028867483139038,
				-1.028867483139038,
				-1.028867483139038
			],
			"type":"VEC3"
		},
		{
			"bufferView":18,
			"componentType":5126,
			"count":192,
			"type":"VEC3"
		},
		{
			"bufferView":19,
			"componentType":5126,
			"count":192,
			"type":"VEC2"
		},
		{
			"bufferView":20,
			"componentType":5126,
			"count":24,
			"max":[
				1,
				1,
				1
			],
			"min":[
				-1,
				-1,
				-1
			],
			"type":"VEC3"
		},
		{
			"bufferView":21,
			"componentType":5126,
			"count":24,
			"type":"VEC3"
		},
		{
			"bufferView":22,
			"componentType":5126,
			"count":24,
			"type":"VEC2"
		},
		{
			"bufferView":23,
			"componentType":5126,
			"count":60,
			"max":[
				3.1999998092651367,
				11.247482299804688,
				1
			],
			"min":[
				-3.1999998092651367,
				0,
				-1
			],
			"type":"VEC3"
		},
		{
			"bufferView":24,
			"componentType":5126,
			"count":60,
			"type":"VEC3"
		},
		{
			"bufferView":25,
			"componentType":5126,
			"count":60,
			"type":"VEC2"
		},
		{
			"bufferView":26,
			"componentType":5123,
			"count":96,
			"type":"SCALAR"
		},
		{
			"bufferView":27,
			"componentType":5126,
			"count":24,
			"max":[
				1,
				1,
				1
			],
			"min":[
				-1,
				-1,
				-1
			],
			"type":"VEC3"
		},
		{
			"bufferView":28,
			"componentType":5126,
			"count":24,
			"type":"VEC3"
		},
		{
			"bufferView":29,
			"componentType":5126,
			"count":24,
			"type":"VEC2"
		},
		{
			"bufferView":30,
			"componentType":5126,
			"count":333,
			"max":[
				40.04882049560547,
				18.029998779296875,
				30.5
			],
			"min":[
				-80.02582550048828,
				-6,
				-246.62232971191406
			],
			"type":"VEC3"
		},
		{
			"bufferView":31,
			"componentType":5126,
			"count":333,
			"type":"VEC3"
		},
		{
			"bufferView":32,
			"componentType":5126,
			"count":333,
			"type":"VEC2"
		},
		{
			"bufferView":33,
			"componentType":5123,
			"count":639,
			"type":"SCALAR"
		},
		{
			"bufferView":34,
			"componentType":5126,
			"count":4,
			"max":[
				1,
				0,
				1
			],
			"min":[
				-1,
				0,
				-1
			],
			"type":"VEC3"
		},
		{
			"bufferView":35,
			"componentType":5126,
			"count":4,
			"type":"VEC3"
		},
		{
			"bufferView":36,
			"componentType":5126,
			"count":4,
			"type":"VEC2"
		},
		{
			"bufferView":37,
			"componentType":5123,
			"count":6,
			"type":"SCALAR"
		},
		{
			"bufferView":38,
			"componentType":5126,
			"count":368,
			"max":[
				40.04882049560547,
				18.029998779296875,
				30.5
			],
			"min":[
				-80.02582550048828,
				-6,
				-246.62232971191406
			],
			"type":"VEC3"
		},
		{
			"bufferView":39,
			"componentType":5126,
			"count":368,
			"type":"VEC3"
		},
		{
			"bufferView":40,
			"componentType":5126,
			"count":368,
			"type":"VEC2"
		},
		{
			"bufferView":41,
			"componentType":5123,
			"count":696,
			"type":"SCALAR"
		}
	],
	"bufferViews":[
		{
			"buffer":0,
			"byteLength":288,
			"byteOffset":0,
			"target":34962
		},
		{
			"buffer":0,
			"byteLength":288,
			"byteOffset":288,
			"target":34962
		},
		{
			"buffer":0,
			"byteLength":192,
			"byteOffset":576,
			"target":34962
		},
		{
			"buffer":0,
			"byteLength":72,
			"byteOffset":768,
			"target":34963
		},
		{
			"buffer":0,
			"byteLength":84,
			"byteOffset":840
		},
		{
			"buffer":0,
			"byteLength":288,
			"byteOffset":924,
			"target":34962
		},
		{
			"buffer":0,
			"byteLength":288,
			"byteOffset":1212,
			"target":34962
		},
		{
			"buffer":0,
			"byteLength":192,
			"byteOffset":1500,
			"target":34962
		},
		{
			"buffer":0,
			"byteLength":72,
			"byteOffset":1692,
			"target":34963
		},
		{
			"buffer":0,
			"byteLength":804,
			"byteOffset":1764,
			"target":34962
		},
		{
			"buffer":0,
			"byteLength":804,
			"byteOffset":2568,
			"target":34962
		},
		{
			"buffer":0,
			"byteLength":536,
			"byteOffset":3372,
			"target":34962
		},
		{
			"buffer":0,
			"byteLength":270,
			"byteOffset":3908,
			"target":34963
		},
		{
			"buffer":0,
			"byteLength":2304,
			"byteOffset":4180,
			"target":34962
		},
		{
			"buffer":0,
			"byteLength":2304,
			"byteOffset":6484,
			"target":34962
		},
		{
			"buffer":0,
			"byteLength":1536,
			"byteOffset":8788,
			"target":34962
		},
		{
			"buffer":0,
			"byteLength":576,
			"byteOffset":10324,
			"target":34963
		},
		{
			"buffer":0,
			"byteLength":2304,
			"byteOffset":10900,
			"target":34962
		},
		{
			"buffer":0,
			"byteLength":2304,
			"byteOffset":13204,
			"target":34962
		},
		{
			"buffer":0,
			"byteLength":1536,
			"byteOffset":15508,
			"target":34962
		},
		{
			"buffer":0,
			"byteLength":288,
			"byteOffset":17044,
			"target":34962
		},
		{
			"buffer":0,
			"byteLength":288,
			"byteOffset":17332,
			"target":34962
		},
		{
			"buffer":0,
			"byteLength":192,
			"byteOffset":17620,
			"target":34962
		},
		{
			"buffer":0,
			"byteLength":720,
			"byteOffset":17812,
			"target":34962
		},
		{
			"buffer":0,
			"byteLength":720,
			"byteOffset":18532,
			"target":34962
		},
		{
			"buffer":0,
			"byteLength":480,
			"byteOffset":19252,
			"target":34962
		},
		{
			"buffer":0,
			"byteLength":192,
			"byteOffset":19732,
			"target":34963
		},
		{
			"buffer":0,
			"byteLength":288,
			"byteOffset":19924,
			"target":34962
		},
		{
			"buffer":0,
			"byteLength":288,
			"byteOffset":20212,
			"target":34962
		},
		{
			"buffer":0,
			"byteLength":192,
			"byteOffset":20500,
			"target":34962
		},
		{
			"buffer":0,
			"byteLength":3996,
			"byteOffset":20692,
			"target":34962
		},
		{
			"buffer":0,
			"byteLength":3996,
			"byteOffset":24688,
			"target":34962
		},
		{
			"buffer":0,
			"byteLength":2664,
			"byteOffset":28684,
			"target":34962
		},
		{
			"buffer":0,
			"byteLength":1278,
			"byteOffset":31348,
			"target":34963
		},
		{
			"buffer":0,
			"byteLength":48,
			"byteOffset":32628,
			"target":34962
		},
		{
			"buffer":0,
			"byteLength":48,
			"byteOffset":32676,
			"target":34962
		},
		{
			"buffer":0,
			"byteLength":32,
			"byteOffset":32724,
			"target":34962
		},
		{
			"buffer":0,
			"byteLength":12,
			"byteOffset":32756,
			"target":34963
		},
		{
			"buffer":0,
			"byteLength":4416,
			"byteOffset":32768,
			"target":34962
		},
		{
			"buffer":0,
			"byteLength":4416,
			"byteOffset":37184,
			"target":34962
		},
		{
			"buffer":0,
			"byteLength":2944,
			"byteOffset":41600,
			"target":34962
		},
		{
			"buffer":0,
			"byteLength":1392,
			"byteOffset":44544,
			"target":34963
		}
	],
	"samplers":[
		{
			"magFilter":9728,
			"minFilter":9984
		}
	],
	"buffers":[
		{
			"byteLength":45936,
			"uri":"data:application/octet-stream;base64,"
		}
	]
}
