{
	"asset":{
		"generator":"Khronos glTF Blender I/O v3.6.27",
		"version":"2.0"
	},
	"scene":0,
	"scenes":[
		{
			"name":"Scene",
			"nodes":[
				6
			]
		}
	],
	"nodes":[
		{
			"mesh":0,
			"name":"Cone",
			"translation":[
				0,
				1,
				0
			]
		},
		{
			"children":[
				0
			],
			"name":"Bone.002",
			"translation":[
				0,
				2,
				0
			]
		},
		{
			"mesh":1,
			"name":"Torus",
			"rotation":[
				0.7071067690849304,
				0,
				0,
				0.7071067690849304
			]
		},
		{
			"children":[
				1,
				2
			],
			"name":"Bone.001",
			"translation":[
				0,
				2,
				0
			]
		},
		{
			"mesh":2,
			"name":"Cylinder"
		},
		{
			"children":[
				3,
				4
			],
			"name":"Bone"
		},
		{
			"children":[
				5
			],
			"name":"Armature",
			"translation":[
				0,
				0,
				10
			]
		}
	],
	"animations":[
		{
			"channels":[
				{
					"sampler":0,
					"target":{
						"node":5,
						"path":"translation"
					}
				},
				{
					"sampler":1,
					"target":{
						"node":5,
						"path":"rotation"
					}
				},
				{
					"sampler":2,
					"target":{
						"node":5,
						"path":"scale"
					}
				},
				{
					"sampler":3,
					"target":{
						"node":3,
						"path":"translation"
					}
				},
				{
					"sampler":4,
					"target":{
						"node":3,
						"path":"rotation"
					}
				},
				{
					"sampler":5,
					"target":{
						"node":3,
						"path":"scale"
					}
				},
				{
					"sampler":6,
					"target":{
						"node":1,
						"path":"translation"
					}
				},
				{
					"sampler":7,
					"target":{
						"node":1,
						"path":"rotation"
					}
				},
				{
					"sampler":8,
					"target":{
						"node":1,
						"path":"scale"
					}
				}
			],
			"name":"hello",
			"samplers":[
				{
					"input":12,
					"interpolation":"STEP",
					"output":13
				},
				{
					"input":14,
					"interpolation":"LINEAR",
					"output":15
				},
				{
					"input":12,
					"interpolation":"STEP",
					"output":16
				},
				{
					"input":12,
					"interpolation":"LINEAR",
					"output":17
				},
				{
					"input":14,
					"interpolation":"LINEAR",
					"output":18
				},
				{
					"input":12,
					"interpolation":"STEP",
					"output":19
				},
				{
					"input":12,
					"interpolation":"LINEAR",
					"output":20
				},
				{
					"input":14,
					"interpolation":"LINEAR",
					"output":21
				},
				{
					"input":12,
					"interpolation":"STEP",
					"output":22
				}
			]
		},
		{
			"channels":[
				{
					"sampler":0,
					"target":{
						"node":5,
						"path":"translation"
					}
				},
				{
					"sampler":1,
					"target":{
						"node":5,
						"path":"rotation"
					}
				},
				{
					"sampler":2,
					"target":{
						"node":5,
						"path":"scale"
					}
				},
				{
					"sampler":3,
					"target":{
						"node":3,
						"path":"translation"
					}
				},
				{
					"sampler":4,
					"target":{
						"node":3,
						"path":"rotation"
					}
				},
				{
					"sampler":5,
					"target":{
						"node":3,
						"path":"scale"
					}
				},
				{
					"sampler":6,
					"target":{
						"node":1,
						"path":"translation"
					}
				},
				{
					"sampler":7,
					"target":{
						"node":1,
						"path":"rotation"
					}
				},
				{
					"sampler":8,
					"target":{
						"node":1,
						"path":"scale"
					}
				}
			],
			"name":"stop",
			"samplers":[
				{
					"input":23,
					"interpolation":"STEP",
					"output":24
				},
				{
					"input":23,
					"interpolation":"STEP",
					"output":25
				},
				{
					"input":23,
					"interpolation":"STEP",
					"output":26
				},
				{
					"input":23,
					"interpolation":"STEP",
					"output":27
				},
				{
					"input":23,
					"interpolation":"STEP",
					"output":28
				},
				{
					"input":23,
					"interpolation":"STEP",
					"output":29
				},
				{
					"input":23,
					"interpolation":"STEP",
					"output":30
				},
				{
					"input":23,
					"interpolation":"STEP",
					"output":31
				},
				{
					"input":23,
					"interpolation":"STEP",
					"output":32
				}
			]
		}
	],
	"meshes":[
		{
			"name":"Cone",
			"primitives":[
				{
					"attributes":{
						"POSITION":0,
						"NORMAL":1,
						"TEXCOORD_0":2
					},
					"indices":3
				}
			]
		},
		{
			"name":"Torus",
			"primitives":[
				{
					"attributes":{
						"POSITION":4,
						"NORMAL":5,
						"TEXCOORD_0":6
					},
					"indices":7
				}
			]
		},
		{
			"name":"Cylinder",
			"primitives":[
				{
					"attributes":{
						"POSITION":8,
						"NORMAL":9,
						"TEXCOORD_0":10
					},
					"indices":11
				}
			]
		}
	],
	"skins":[
		{
			"inverseBindMatrices":33,
			"joints":[
				5,
				3,
				1
			],
			"name":"Armature"
		}
	],
	"accessors":[
		{
			"bufferView":0,
			"componentType":5126,
			"count":128,
			"max":[
				1,
				1,
				1
			],
			"min":[
				-1,
				-1,
				-1
			],
			"type":"VEC3"
		},
		{
			"bufferView":1,
			"componentType":5126,
			"count":128,
			"type":"VEC3"
		},
		{
			"bufferView":2,
			"componentType":5126,
			"count":128,
			"type":"VEC2"
		},
		{
			"bufferView":3,
			"componentType":5123,
			"count":186,
			"type":"SCALAR"
		},
		{
			"bufferView":4,
			"componentType":5126,
			"count":2304,
			"max":[
				1.25,
				0.25,
				1.25
			],
			"min":[
				-1.25,
				-0.25,
				-1.25
			],
			"type":"VEC3"
		},
		{
			"bufferView":5,
			"componentType":5126,
			"count":2304,
			"type":"VEC3"
		},
		{
			"bufferView":6,
			"componentType":5126,
			"count":2304,
			"type":"VEC2"
		},
		{
			"bufferView":7,
			"componentType":5123,
			"count":3456,
			"type":"SCALAR"
		},
		{
			"bufferView":8,
			"componentType":5126,
			"count":192,
			"max":[
				0.5,
				0.5,
				0.5000009536743164
			],
			"min":[
				-0.5,
				-0.5,
				-0.4999990463256836
			],
			"type":"VEC3"
		},
		{
			"bufferView":9,
			"componentType":5126,
			"count":192,
			"type":"VEC3"
		},
		{
			"bufferView":10,
			"componentType":5126,
			"count":192,
			"type":"VEC2"
		},
		{
			"bufferView":11,
			"componentType":5123,
			"count":372,
			"type":"SCALAR"
		},
		{
			"bufferView":12,
			"componentType":5126,
			"count":2,
			"max":[
				1.5
			],
			"min":[
				0
			],
			"type":"SCALAR"
		},
		{
			"bufferView":13,
			"componentType":5126,
			"count":2,
			"type":"VEC3"
		},
		{
			"bufferView":14,
			"componentType":5126,
			"count":46,
			"max":[
				1.5
			],
			"min":[
				0
			],
			"type":"SCALAR"
		},
		{
			"bufferView":15,
			"componentType":5126,
			"count":46,
			"type":"VEC4"
		},
		{
			"bufferView":16,
			"componentType":5126,
			"count":2,
			"type":"VEC3"
		},
		{
			"bufferView":17,
			"componentType":5126,
			"count":2,
			"type":"VEC3"
		},
		{
			"bufferView":18,
			"componentType":5126,
			"count":46,
			"type":"VEC4"
		},
		{
			"bufferView":19,
			"componentType":5126,
			"count":2,
			"type":"VEC3"
		},
		{
			"bufferView":20,
			"componentType":5126,
			"count":2,
			"type":"VEC3"
		},
		{
			"bufferView":21,
			"componentType":5126,
			"count":46,
			"type":"VEC4"
		},
		{
			"bufferView":22,
			"componentType":5126,
			"count":2,
			"type":"VEC3"
		},
		{
			"bufferView":23,
			"componentType":5126,
			"count":2,
			"max":[
				1
			],
			"min":[
				0
			],
			"type":"SCALAR"
		},
		{
			"bufferView":24,
			"componentType":5126,
			"count":2,
			"type":"VEC3"
		},
		{
			"bufferView":25,
			"componentType":5126,
			"count":2,
			"type":"VEC4"
		},
		{
			"bufferView":26,
			"componentType":5126,
			"count":2,
			"type":"VEC3"
		},
		{
			"bufferView":27,
			"componentType":5126,
			"count":2,
			"type":"VEC3"
		},
		{
			"bufferView":28,
			"componentType":5126,
			"count":2,
			"type":"VEC4"
		},
		{
			"bufferView":29,
			"componentType":5126,
			"count":2,
			"type":"VEC3"
		},
		{
			"bufferView":30,
			"componentType":5126,
			"count":2,
			"type":"VEC3"
		},
		{
			"bufferView":31,
			"componentType":5126,
			"count":2,
			"type":"VEC4"
		},
		{
			"bufferView":32,
			"componentType":5126,
			"count":2,
			"type":"VEC3"
		},
		{
			"bufferView":33,
			"componentType":5126,
			"count":3,
			"type":"MAT4"
		}
	],
	"bufferViews":[
		{
			"buffer":0,
			"byteLength":1536,
			"byteOffset":0,
			"target":34962
		},
		{
			"buffer":0,
			"byteLength":1536,
			"byteOffset":1536,
			"target":34962
		},
		{
			"buffer":0,
			"byteLength":1024,
			"byteOffset":3072,
			"target":34962
		},
		{
			"buffer":0,
			"byteLength":372,
			"byteOffset":4096,
			"target":34963
		},
		{
			"buffer":0,
			"byteLength":27648,
			"byteOffset":4468,
			"target":34962
		},
		{
			"buffer":0,
			"byteLength":27648,
			"byteOffset":32116,
			"target":34962
		},
		{
			"buffer":0,
			"byteLength":18432,
			"byteOffset":59764,
			"target":34962
		},
		{
			"buffer":0,
			"byteLength":6912,
			"byteOffset":78196,
			"target":34963
		},
		{
			"buffer":0,
			"byteLength":2304,
			"byteOffset":85108,
			"target":34962
		},
		{
			"buffer":0,
			"byteLength":2304,
			"byteOffset":87412,
			"target":34962
		},
		{
			"buffer":0,
			"byteLength":1536,
			"byteOffset":89716,
			"target":34962
		},
		{
			"buffer":0,
			"byteLength":744,
			"byteOffset":91252,
			"target":34963
		},
		{
			"buffer":0,
			"byteLength":8,
			"byteOffset":91996
		},
		{
			"buffer":0,
			"byteLength":24,
			"byteOffset":92004
		},
		{
			"buffer":0,
			"byteLength":184,
			"byteOffset":92028
		},
		{
			"buffer":0,
			"byteLength":736,
			"byteOffset":92212
		},
		{
			"buffer":0,
			"byteLength":24,
			"byteOffset":92948
		},
		{
			"buffer":0,
			"byteLength":24,
			"byteOffset":92972
		},
		{
			"buffer":0,
			"byteLength":736,
			"byteOffset":92996
		},
		{
			"buffer":0,
			"byteLength":24,
			"byteOffset":93732
		},
		{
			"buffer":0,
			"byteLength":24,
			"byteOffset":93756
		},
		{
			"buffer":0,
			"byteLength":736,
			"byteOffset":93780
		},
		{
			"buffer":0,
			"byteLength":24,
			"byteOffset":94516
		},
		{
			"buffer":0,
			"byteLength":8,
			"byteOffset":94540
		},
		{
			"buffer":0,
			"byteLength":24,
			"byteOffset":94548
		},
		{
			"buffer":0,
			"byteLength":32,
			"byteOffset":94572
		},
		{
			"buffer":0,
			"byteLength":24,
			"byteOffset":94604
		},
		{
			"buffer":0,
			"byteLength":24,
			"byteOffset":94628
		},
		{
			"buffer":0,
			"byteLength":32,
			"byteOffset":94652
		},
		{
			"buffer":0,
			"byteLength":24,
			"byteOffset":94684
		},
		{
			"buffer":0,
			"byteLength":24,
			"byteOffset":94708
		},
		{
			"buffer":0,
			"byteLength":32,
			"byteOffset":94732
		},
		{
			"buffer":0,
			"byteLength":24,
			"byteOffset":94764
		},
		{
			"buffer":0,
			"byteLength":192,
			"byteOffset":94788
		}
	],
	"buffers":[
		{
			"byteLength":94980,
			"uri":"data:application/octet-stream;base64,"
		}
	]
}
