{
	"asset":{
		"generator":"Khronos glTF Blender I/O v3.5.30",
		"version":"2.0"
	},
	"scene":0,
	"scenes":[
		{
			"name":"Scene",
			"nodes":[
				5,
				6,
				7
			]
		}
	],
	"nodes":[
		{
			"mesh":0,
			"name":"aim"
		},
		{
			"name":"bullet_spaw",
			"translation":[
				2.8780128955841064,
				0.298466295003891,
				0
			]
		},
		{
			"children":[
				1
			],
			"mesh":1,
			"name":"barrel"
		},
		{
			"name":"bullet_spaw.001",
			"translation":[
				1.5662000179290771,
				0.31729376316070557,
				0
			]
		},
		{
			"mesh":2,
			"name":"butt"
		},
		{
			"children":[
				0,
				2,
				3,
				4
			],
			"mesh":3,
			"name":"pistol"
		},
		{
			"mesh":4,
			"name":"pistol_fire",
			"translation":[
				0,
				2,
				0
			]
		},
		{
			"mesh":5,
			"name":"bullet",
			"translation":[
				0,
				4,
				0
			]
		}
	],
	"materials":[
		{
			"doubleSided":true,
			"name":"Material",
			"pbrMetallicRoughness":{
				"baseColorFactor":[
					0.800000011920929,
					0.800000011920929,
					0.800000011920929,
					1
				],
				"metallicFactor":0,
				"roughnessFactor":0.5
			}
		}
	],
	"meshes":[
		{
			"name":"aim",
			"primitives":[
				{
					"attributes":{
						"POSITION":0,
						"TEXCOORD_0":1,
						"NORMAL":2,
						"TANGENT":3
					},
					"indices":4
				}
			]
		},
		{
			"name":"barrel",
			"primitives":[
				{
					"attributes":{
						"POSITION":5,
						"TEXCOORD_0":6,
						"NORMAL":7,
						"TANGENT":8
					},
					"indices":9
				}
			]
		},
		{
			"name":"butt",
			"primitives":[
				{
					"attributes":{
						"POSITION":10,
						"TEXCOORD_0":11,
						"NORMAL":12,
						"TANGENT":13
					},
					"indices":14
				}
			]
		},
		{
			"name":"pistol",
			"primitives":[
				{
					"attributes":{
						"POSITION":15,
						"TEXCOORD_0":16,
						"NORMAL":17,
						"TANGENT":18
					},
					"indices":19,
					"material":0
				}
			]
		},
		{
			"name":"pistol_fire",
			"primitives":[
				{
					"attributes":{
						"POSITION":20,
						"TEXCOORD_0":21,
						"NORMAL":22,
						"TANGENT":23
					},
					"indices":24
				}
			]
		},
		{
			"name":"bullet",
			"primitives":[
				{
					"attributes":{
						"POSITION":25,
						"TEXCOORD_0":26,
						"NORMAL":27,
						"TANGENT":28
					},
					"indices":29
				}
			]
		}
	],
	"accessors":[
		{
			"bufferView":0,
			"componentType":5126,
			"count":24,
			"max":[
				0.6553869247436523,
				0.6189568042755127,
				0.089122474193573
			],
			"min":[
				-0.029613971710205078,
				0.3962736129760742,
				-0.08912248909473419
			],
			"type":"VEC3"
		},
		{
			"bufferView":1,
			"componentType":5126,
			"count":24,
			"type":"VEC2"
		},
		{
			"bufferView":2,
			"componentType":5126,
			"count":24,
			"type":"VEC3"
		},
		{
			"bufferView":3,
			"componentType":5126,
			"count":24,
			"type":"VEC4"
		},
		{
			"bufferView":4,
			"componentType":5123,
			"count":30,
			"type":"SCALAR"
		},
		{
			"bufferView":5,
			"componentType":5126,
			"count":154,
			"max":[
				2.7909135818481445,
				0.4187532961368561,
				0.10990576446056366
			],
			"min":[
				1.1650259494781494,
				-0.006092280149459839,
				-0.10990577936172485
			],
			"type":"VEC3"
		},
		{
			"bufferView":6,
			"componentType":5126,
			"count":154,
			"type":"VEC2"
		},
		{
			"bufferView":7,
			"componentType":5126,
			"count":154,
			"type":"VEC3"
		},
		{
			"bufferView":8,
			"componentType":5126,
			"count":154,
			"type":"VEC4"
		},
		{
			"bufferView":9,
			"componentType":5123,
			"count":252,
			"type":"SCALAR"
		},
		{
			"bufferView":10,
			"componentType":5126,
			"count":40,
			"max":[
				-0.010545134544372559,
				0.3467687964439392,
				0.10773248970508575
			],
			"min":[
				-1.2879934310913086,
				-0.11167818307876587,
				-0.10773248970508575
			],
			"type":"VEC3"
		},
		{
			"bufferView":11,
			"componentType":5126,
			"count":40,
			"type":"VEC2"
		},
		{
			"bufferView":12,
			"componentType":5126,
			"count":40,
			"type":"VEC3"
		},
		{
			"bufferView":13,
			"componentType":5126,
			"count":40,
			"type":"VEC4"
		},
		{
			"bufferView":14,
			"componentType":5123,
			"count":60,
			"type":"SCALAR"
		},
		{
			"bufferView":15,
			"componentType":5126,
			"count":170,
			"max":[
				1.5216381549835205,
				0.41742873191833496,
				0.10000002384185791
			],
			"min":[
				-0.1565871238708496,
				-0.1528298556804657,
				-0.10000002384185791
			],
			"type":"VEC3"
		},
		{
			"bufferView":16,
			"componentType":5126,
			"count":170,
			"type":"VEC2"
		},
		{
			"bufferView":17,
			"componentType":5126,
			"count":170,
			"type":"VEC3"
		},
		{
			"bufferView":18,
			"componentType":5126,
			"count":170,
			"type":"VEC4"
		},
		{
			"bufferView":19,
			"componentType":5123,
			"count":300,
			"type":"SCALAR"
		},
		{
			"bufferView":20,
			"componentType":5126,
			"count":84,
			"max":[
				0.20844992995262146,
				0.1414213925600052,
				0.1414213925600052
			],
			"min":[
				-0.10000001639127731,
				-0.1414213925600052,
				-0.1414213925600052
			],
			"type":"VEC3"
		},
		{
			"bufferView":21,
			"componentType":5126,
			"count":84,
			"type":"VEC2"
		},
		{
			"bufferView":22,
			"componentType":5126,
			"count":84,
			"type":"VEC3"
		},
		{
			"bufferView":23,
			"componentType":5126,
			"count":84,
			"type":"VEC4"
		},
		{
			"bufferView":24,
			"componentType":5123,
			"count":108,
			"type":"SCALAR"
		},
		{
			"bufferView":25,
			"componentType":5126,
			"count":144,
			"max":[
				0.17071068286895752,
				0.1707097291946411,
				0.17241179943084717
			],
			"min":[
				-0.17071068286895752,
				-0.17071163654327393,
				-0.17241179943084717
			],
			"type":"VEC3"
		},
		{
			"bufferView":26,
			"componentType":5126,
			"count":144,
			"type":"VEC2"
		},
		{
			"bufferView":27,
			"componentType":5126,
			"count":144,
			"type":"VEC3"
		},
		{
			"bufferView":28,
			"componentType":5126,
			"count":144,
			"type":"VEC4"
		},
		{
			"bufferView":29,
			"componentType":5123,
			"count":144,
			"type":"SCALAR"
		}
	],
	"bufferViews":[
		{
			"buffer":0,
			"byteLength":288,
			"byteOffset":0,
			"target":34962
		},
		{
			"buffer":0,
			"byteLength":192,
			"byteOffset":288,
			"target":34962
		},
		{
			"buffer":0,
			"byteLength":288,
			"byteOffset":480,
			"target":34962
		},
		{
			"buffer":0,
			"byteLength":384,
			"byteOffset":768,
			"target":34962
		},
		{
			"buffer":0,
			"byteLength":60,
			"byteOffset":1152,
			"target":34963
		},
		{
			"buffer":0,
			"byteLength":1848,
			"byteOffset":1212,
			"target":34962
		},
		{
			"buffer":0,
			"byteLength":1232,
			"byteOffset":3060,
			"target":34962
		},
		{
			"buffer":0,
			"byteLength":1848,
			"byteOffset":4292,
			"target":34962
		},
		{
			"buffer":0,
			"byteLength":2464,
			"byteOffset":6140,
			"target":34962
		},
		{
			"buffer":0,
			"byteLength":504,
			"byteOffset":8604,
			"target":34963
		},
		{
			"buffer":0,
			"byteLength":480,
			"byteOffset":9108,
			"target":34962
		},
		{
			"buffer":0,
			"byteLength":320,
			"byteOffset":9588,
			"target":34962
		},
		{
			"buffer":0,
			"byteLength":480,
			"byteOffset":9908,
			"target":34962
		},
		{
			"buffer":0,
			"byteLength":640,
			"byteOffset":10388,
			"target":34962
		},
		{
			"buffer":0,
			"byteLength":120,
			"byteOffset":11028,
			"target":34963
		},
		{
			"buffer":0,
			"byteLength":2040,
			"byteOffset":11148,
			"target":34962
		},
		{
			"buffer":0,
			"byteLength":1360,
			"byteOffset":13188,
			"target":34962
		},
		{
			"buffer":0,
			"byteLength":2040,
			"byteOffset":14548,
			"target":34962
		},
		{
			"buffer":0,
			"byteLength":2720,
			"byteOffset":16588,
			"target":34962
		},
		{
			"buffer":0,
			"byteLength":600,
			"byteOffset":19308,
			"target":34963
		},
		{
			"buffer":0,
			"byteLength":1008,
			"byteOffset":19908,
			"target":34962
		},
		{
			"buffer":0,
			"byteLength":672,
			"byteOffset":20916,
			"target":34962
		},
		{
			"buffer":0,
			"byteLength":1008,
			"byteOffset":21588,
			"target":34962
		},
		{
			"buffer":0,
			"byteLength":1344,
			"byteOffset":22596,
			"target":34962
		},
		{
			"buffer":0,
			"byteLength":216,
			"byteOffset":23940,
			"target":34963
		},
		{
			"buffer":0,
			"byteLength":1728,
			"byteOffset":24156,
			"target":34962
		},
		{
			"buffer":0,
			"byteLength":1152,
			"byteOffset":25884,
			"target":34962
		},
		{
			"buffer":0,
			"byteLength":1728,
			"byteOffset":27036,
			"target":34962
		},
		{
			"buffer":0,
			"byteLength":2304,
			"byteOffset":28764,
			"target":34962
		},
		{
			"buffer":0,
			"byteLength":288,
			"byteOffset":31068,
			"target":34963
		}
	],
	"buffers":[
		{
			"byteLength":31356,
			"uri":"data:application/octet-stream;base64,"
		}
	]
}
