{
	"asset":{
		"generator":"Khronos glTF Blender I/O v3.5.30",
		"version":"2.0"
	},
	"scene":0,
	"scenes":[
		{
			"name":"Scene",
			"nodes":[
				0,
				1,
				3,
				4,
				5,
				6
			]
		}
	],
	"nodes":[
		{
			"extras":{
				"type":"test_sb"
			},
			"mesh":0,
			"name":"floor"
		},
		{
			"mesh":1,
			"name":"glass"
		},
		{
			"mesh":2,
			"name":"Cone",
			"translation":[
				0,
				4,
				0
			]
		},
		{
			"children":[
				2
			],
			"mesh":3,
			"name":"Cube.002",
			"translation":[
				0,
				1,
				0
			]
		},
		{
			"extras":{
				"type":"test_rb"
			},
			"mesh":4,
			"name":"Cube",
			"rotation":[
				-0.1516825556755066,
				0.19313085079193115,
				0.1846245676279068,
				0.9516336917877197
			],
			"translation":[
				0,
				3,
				20
			]
		},
		{
			"extras":{
				"type":"test_audio"
			},
			"mesh":5,
			"name":"Suzanne",
			"rotation":[
				0,
				-0.7071068286895752,
				0,
				0.7071068286895752
			],
			"translation":[
				4,
				2,
				8
			]
		},
		{
			"extras":{
				"type":"player_start"
			},
			"mesh":6,
			"name":"Cone.001",
			"translation":[
				0,
				2,
				8
			]
		}
	],
	"animations":[
		{
			"channels":[
				{
					"sampler":0,
					"target":{
						"node":3,
						"path":"translation"
					}
				},
				{
					"sampler":1,
					"target":{
						"node":3,
						"path":"rotation"
					}
				},
				{
					"sampler":2,
					"target":{
						"node":3,
						"path":"scale"
					}
				}
			],
			"name":"Cube.002Action",
			"samplers":[
				{
					"input":32,
					"interpolation":"LINEAR",
					"output":33
				},
				{
					"input":32,
					"interpolation":"LINEAR",
					"output":34
				},
				{
					"input":32,
					"interpolation":"LINEAR",
					"output":35
				}
			]
		},
		{
			"channels":[
				{
					"sampler":0,
					"target":{
						"node":2,
						"path":"translation"
					}
				},
				{
					"sampler":1,
					"target":{
						"node":2,
						"path":"rotation"
					}
				},
				{
					"sampler":2,
					"target":{
						"node":2,
						"path":"scale"
					}
				}
			],
			"name":"ConeAction",
			"samplers":[
				{
					"input":32,
					"interpolation":"LINEAR",
					"output":36
				},
				{
					"input":32,
					"interpolation":"LINEAR",
					"output":37
				},
				{
					"input":32,
					"interpolation":"LINEAR",
					"output":38
				}
			]
		}
	],
	"materials":[
		{
			"doubleSided":true,
			"name":"Material",
			"pbrMetallicRoughness":{
				"baseColorFactor":[
					0.800000011920929,
					0.800000011920929,
					0.800000011920929,
					1
				],
				"metallicFactor":0,
				"roughnessFactor":0.5
			}
		},
		{
			"alphaMode":"BLEND",
			"doubleSided":true,
			"name":"vidro",
			"pbrMetallicRoughness":{
				"baseColorFactor":[
					0.015741875395178795,
					0.7325676679611206,
					0.8000000715255737,
					0.3730570077896118
				],
				"metallicFactor":0,
				"roughnessFactor":0.5
			}
		}
	],
	"meshes":[
		{
			"extras":{
				"type":"test_sb"
			},
			"name":"floor",
			"primitives":[
				{
					"attributes":{
						"POSITION":0,
						"TEXCOORD_0":1,
						"NORMAL":2,
						"TANGENT":3
					},
					"indices":4,
					"material":0
				}
			]
		},
		{
			"name":"glass",
			"primitives":[
				{
					"attributes":{
						"POSITION":5,
						"TEXCOORD_0":6,
						"NORMAL":7,
						"TANGENT":8
					},
					"indices":9,
					"material":1
				}
			]
		},
		{
			"name":"Cone",
			"primitives":[
				{
					"attributes":{
						"POSITION":10,
						"TEXCOORD_0":11,
						"NORMAL":12
					},
					"indices":13
				}
			]
		},
		{
			"name":"Cube.002",
			"primitives":[
				{
					"attributes":{
						"POSITION":14,
						"TEXCOORD_0":15,
						"NORMAL":16,
						"TANGENT":17
					},
					"indices":18
				}
			]
		},
		{
			"extras":{
				"type":"test_rb"
			},
			"name":"Cube",
			"primitives":[
				{
					"attributes":{
						"POSITION":19,
						"TEXCOORD_0":20,
						"NORMAL":21,
						"TANGENT":22
					},
					"indices":23
				}
			]
		},
		{
			"name":"Suzanne",
			"primitives":[
				{
					"attributes":{
						"POSITION":24,
						"TEXCOORD_0":25,
						"NORMAL":26,
						"TANGENT":27
					},
					"indices":28
				}
			]
		},
		{
			"name":"Cone.001",
			"primitives":[
				{
					"attributes":{
						"POSITION":29,
						"TEXCOORD_0":30,
						"NORMAL":31
					},
					"indices":13
				}
			]
		}
	],
	"accessors":[
		{
			"bufferView":0,
			"componentType":5126,
			"count":24,
			"max":[
				100,
				0,
				100
			],
			"min":[
				-100,
				-1,
				-100
			],
			"type":"VEC3"
		},
		{
			"bufferView":1,
			"componentType":5126,
			"count":24,
			"type":"VEC2"
		},
		{
			"bufferView":2,
			"componentType":5126,
			"count":24,
			"type":"VEC3"
		},
		{
			"bufferView":3,
			"componentType":5126,
			"count":24,
			"type":"VEC4"
		},
		{
			"bufferView":4,
			"componentType":5123,
			"count":36,
			"type":"SCALAR"
		},
		{
			"bufferView":5,
			"componentType":5126,
			"count":196,
			"max":[
				100,
				102,
				100
			],
			"min":[
				-100,
				0,
				-100
			],
			"type":"VEC3"
		},
		{
			"bufferView":6,
			"componentType":5126,
			"count":196,
			"type":"VEC2"
		},
		{
			"bufferView":7,
			"componentType":5126,
			"count":196,
			"type":"VEC3"
		},
		{
			"bufferView":8,
			"componentType":5126,
			"count":196,
			"type":"VEC4"
		},
		{
			"bufferView":9,
			"componentType":5123,
			"count":228,
			"type":"SCALAR"
		},
		{
			"bufferView":10,
			"componentType":5126,
			"count":128,
			"max":[
				1,
				1,
				1
			],
			"min":[
				-1,
				-1,
				-1
			],
			"type":"VEC3"
		},
		{
			"bufferView":11,
			"componentType":5126,
			"count":128,
			"type":"VEC2"
		},
		{
			"bufferView":12,
			"componentType":5126,
			"count":128,
			"type":"VEC3"
		},
		{
			"bufferView":13,
			"componentType":5123,
			"count":186,
			"type":"SCALAR"
		},
		{
			"bufferView":14,
			"componentType":5126,
			"count":24,
			"max":[
				1,
				1,
				1
			],
			"min":[
				-1,
				-1,
				-1
			],
			"type":"VEC3"
		},
		{
			"bufferView":15,
			"componentType":5126,
			"count":24,
			"type":"VEC2"
		},
		{
			"bufferView":16,
			"componentType":5126,
			"count":24,
			"type":"VEC3"
		},
		{
			"bufferView":17,
			"componentType":5126,
			"count":24,
			"type":"VEC4"
		},
		{
			"bufferView":18,
			"componentType":5123,
			"count":36,
			"type":"SCALAR"
		},
		{
			"bufferView":19,
			"componentType":5126,
			"count":24,
			"max":[
				1,
				1,
				1
			],
			"min":[
				-1,
				-1,
				-1
			],
			"type":"VEC3"
		},
		{
			"bufferView":20,
			"componentType":5126,
			"count":24,
			"type":"VEC2"
		},
		{
			"bufferView":21,
			"componentType":5126,
			"count":24,
			"type":"VEC3"
		},
		{
			"bufferView":22,
			"componentType":5126,
			"count":24,
			"type":"VEC4"
		},
		{
			"bufferView":23,
			"componentType":5123,
			"count":36,
			"type":"SCALAR"
		},
		{
			"bufferView":24,
			"componentType":5126,
			"count":1966,
			"max":[
				1.3671875,
				0.984375,
				0.8515625
			],
			"min":[
				-1.3671875,
				-0.984375,
				-0.8515625
			],
			"type":"VEC3"
		},
		{
			"bufferView":25,
			"componentType":5126,
			"count":1966,
			"type":"VEC2"
		},
		{
			"bufferView":26,
			"componentType":5126,
			"count":1966,
			"type":"VEC3"
		},
		{
			"bufferView":27,
			"componentType":5126,
			"count":1966,
			"type":"VEC4"
		},
		{
			"bufferView":28,
			"componentType":5123,
			"count":2904,
			"type":"SCALAR"
		},
		{
			"bufferView":29,
			"componentType":5126,
			"count":128,
			"max":[
				0.9999999403953552,
				1.0606061220169067,
				0.060606181621551514
			],
			"min":[
				-0.9999999403953552,
				-0.9393938779830933,
				-1.9393938779830933
			],
			"type":"VEC3"
		},
		{
			"bufferView":30,
			"componentType":5126,
			"count":128,
			"type":"VEC2"
		},
		{
			"bufferView":31,
			"componentType":5126,
			"count":128,
			"type":"VEC3"
		},
		{
			"bufferView":32,
			"componentType":5126,
			"count":60,
			"max":[
				2.5
			],
			"min":[
				0.041666666666666664
			],
			"type":"SCALAR"
		},
		{
			"bufferView":33,
			"componentType":5126,
			"count":60,
			"type":"VEC3"
		},
		{
			"bufferView":34,
			"componentType":5126,
			"count":60,
			"type":"VEC4"
		},
		{
			"bufferView":35,
			"componentType":5126,
			"count":60,
			"type":"VEC3"
		},
		{
			"bufferView":36,
			"componentType":5126,
			"count":60,
			"type":"VEC3"
		},
		{
			"bufferView":37,
			"componentType":5126,
			"count":60,
			"type":"VEC4"
		},
		{
			"bufferView":38,
			"componentType":5126,
			"count":60,
			"type":"VEC3"
		}
	],
	"bufferViews":[
		{
			"buffer":0,
			"byteLength":288,
			"byteOffset":0,
			"target":34962
		},
		{
			"buffer":0,
			"byteLength":192,
			"byteOffset":288,
			"target":34962
		},
		{
			"buffer":0,
			"byteLength":288,
			"byteOffset":480,
			"target":34962
		},
		{
			"buffer":0,
			"byteLength":384,
			"byteOffset":768,
			"target":34962
		},
		{
			"buffer":0,
			"byteLength":72,
			"byteOffset":1152,
			"target":34963
		},
		{
			"buffer":0,
			"byteLength":2352,
			"byteOffset":1224,
			"target":34962
		},
		{
			"buffer":0,
			"byteLength":1568,
			"byteOffset":3576,
			"target":34962
		},
		{
			"buffer":0,
			"byteLength":2352,
			"byteOffset":5144,
			"target":34962
		},
		{
			"buffer":0,
			"byteLength":3136,
			"byteOffset":7496,
			"target":34962
		},
		{
			"buffer":0,
			"byteLength":456,
			"byteOffset":10632,
			"target":34963
		},
		{
			"buffer":0,
			"byteLength":1536,
			"byteOffset":11088,
			"target":34962
		},
		{
			"buffer":0,
			"byteLength":1024,
			"byteOffset":12624,
			"target":34962
		},
		{
			"buffer":0,
			"byteLength":1536,
			"byteOffset":13648,
			"target":34962
		},
		{
			"buffer":0,
			"byteLength":372,
			"byteOffset":15184,
			"target":34963
		},
		{
			"buffer":0,
			"byteLength":288,
			"byteOffset":15556,
			"target":34962
		},
		{
			"buffer":0,
			"byteLength":192,
			"byteOffset":15844,
			"target":34962
		},
		{
			"buffer":0,
			"byteLength":288,
			"byteOffset":16036,
			"target":34962
		},
		{
			"buffer":0,
			"byteLength":384,
			"byteOffset":16324,
			"target":34962
		},
		{
			"buffer":0,
			"byteLength":72,
			"byteOffset":16708,
			"target":34963
		},
		{
			"buffer":0,
			"byteLength":288,
			"byteOffset":16780,
			"target":34962
		},
		{
			"buffer":0,
			"byteLength":192,
			"byteOffset":17068,
			"target":34962
		},
		{
			"buffer":0,
			"byteLength":288,
			"byteOffset":17260,
			"target":34962
		},
		{
			"buffer":0,
			"byteLength":384,
			"byteOffset":17548,
			"target":34962
		},
		{
			"buffer":0,
			"byteLength":72,
			"byteOffset":17932,
			"target":34963
		},
		{
			"buffer":0,
			"byteLength":23592,
			"byteOffset":18004,
			"target":34962
		},
		{
			"buffer":0,
			"byteLength":15728,
			"byteOffset":41596,
			"target":34962
		},
		{
			"buffer":0,
			"byteLength":23592,
			"byteOffset":57324,
			"target":34962
		},
		{
			"buffer":0,
			"byteLength":31456,
			"byteOffset":80916,
			"target":34962
		},
		{
			"buffer":0,
			"byteLength":5808,
			"byteOffset":112372,
			"target":34963
		},
		{
			"buffer":0,
			"byteLength":1536,
			"byteOffset":118180,
			"target":34962
		},
		{
			"buffer":0,
			"byteLength":1024,
			"byteOffset":119716,
			"target":34962
		},
		{
			"buffer":0,
			"byteLength":1536,
			"byteOffset":120740,
			"target":34962
		},
		{
			"buffer":0,
			"byteLength":240,
			"byteOffset":122276
		},
		{
			"buffer":0,
			"byteLength":720,
			"byteOffset":122516
		},
		{
			"buffer":0,
			"byteLength":960,
			"byteOffset":123236
		},
		{
			"buffer":0,
			"byteLength":720,
			"byteOffset":124196
		},
		{
			"buffer":0,
			"byteLength":720,
			"byteOffset":124916
		},
		{
			"buffer":0,
			"byteLength":960,
			"byteOffset":125636
		},
		{
			"buffer":0,
			"byteLength":720,
			"byteOffset":126596
		}
	],
	"buffers":[
		{
			"byteLength":127316,
			"uri":"data:application/octet-stream;base64,"
		}
	]
}
