{
	"asset":{
		"generator":"Khronos glTF Blender I/O v3.6.27",
		"version":"2.0"
	},
	"scene":0,
	"scenes":[
		{
			"name":"Scene",
			"nodes":[
				26
			]
		}
	],
	"nodes":[
		{
			"mesh":0,
			"name":"Cube",
			"translation":[
				0,
				2,
				0
			]
		},
		{
			"children":[
				0
			],
			"name":"Bone.002",
			"translation":[
				0,
				2,
				0
			]
		},
		{
			"mesh":1,
			"name":"Cube.010",
			"rotation":[
				1,
				0,
				0,
				0
			],
			"translation":[
				0,
				1,
				0
			]
		},
		{
			"children":[
				2
			],
			"name":"Bone.005",
			"translation":[
				0,
				4,
				0
			]
		},
		{
			"mesh":2,
			"name":"Cube.008",
			"rotation":[
				1,
				0,
				0,
				0
			],
			"translation":[
				0,
				1,
				0
			]
		},
		{
			"children":[
				3,
				4
			],
			"name":"Bone.004",
			"rotation":[
				-0.7071067690849304,
				0,
				0,
				0.7071067690849304
			],
			"translation":[
				0,
				3,
				0
			]
		},
		{
			"children":[
				5
			],
			"name":"Bone.003",
			"rotation":[
				-0.7071067690849304,
				0,
				0,
				0.7071067690849304
			],
			"translation":[
				0,
				2,
				0
			]
		},
		{
			"mesh":3,
			"name":"Cube.009",
			"rotation":[
				1,
				1.2766239758604946e-36,
				0,
				1.910685465164705e-15
			],
			"translation":[
				0,
				1,
				0
			]
		},
		{
			"children":[
				7
			],
			"name":"Bone.008",
			"rotation":[
				0,
				-3.3407486883511458e-22,
				0,
				1
			],
			"translation":[
				0,
				4,
				0
			]
		},
		{
			"mesh":4,
			"name":"Cube.007",
			"rotation":[
				1,
				1.2766239758604946e-36,
				3.3407486883511458e-22,
				1.910685465164705e-15
			],
			"translation":[
				0,
				1,
				0
			]
		},
		{
			"children":[
				8,
				9
			],
			"name":"Bone.007",
			"rotation":[
				0.7071067690849304,
				3.0908619663705394e-08,
				-3.0908619663705394e-08,
				0.7071067690849304
			],
			"translation":[
				0,
				3,
				0
			]
		},
		{
			"children":[
				10
			],
			"name":"Bone.006",
			"rotation":[
				0.7071067690849304,
				-3.0908619663705394e-08,
				-3.0908619663705394e-08,
				0.7071067690849304
			],
			"translation":[
				0,
				2,
				0
			]
		},
		{
			"mesh":5,
			"name":"Cube.001",
			"translation":[
				0,
				1,
				0
			]
		},
		{
			"children":[
				1,
				6,
				11,
				12
			],
			"name":"Bone.001",
			"translation":[
				0,
				1,
				0
			]
		},
		{
			"mesh":6,
			"name":"Cube.002"
		},
		{
			"children":[
				13,
				14
			],
			"name":"Bone"
		},
		{
			"mesh":7,
			"name":"Cube.006",
			"rotation":[
				1,
				0,
				0,
				0
			],
			"translation":[
				0,
				2.000000476837158,
				5.960464477539063e-08
			]
		},
		{
			"children":[
				16
			],
			"name":"Bone.011",
			"translation":[
				0,
				3.999999523162842,
				0
			]
		},
		{
			"mesh":8,
			"name":"Cube.004",
			"rotation":[
				1,
				0,
				0,
				0
			],
			"translation":[
				0,
				2,
				5.960464477539063e-08
			]
		},
		{
			"children":[
				17,
				18
			],
			"name":"Bone.010",
			"rotation":[
				-0.3826834559440613,
				0,
				0,
				0.9238795638084412
			],
			"scale":[
				1,
				0.9999999403953552,
				1
			],
			"translation":[
				0,
				1.4142134189605713,
				1.1920928955078125e-07
			]
		},
		{
			"children":[
				19
			],
			"name":"Bone.009",
			"rotation":[
				-0.9238795638084412,
				0,
				0,
				0.3826834559440613
			],
			"scale":[
				1,
				0.9999999403953552,
				1
			]
		},
		{
			"mesh":9,
			"name":"Cube.005",
			"rotation":[
				-1.9470715528768778e-07,
				-7.450581485102248e-09,
				-1,
				1.663856464444776e-14
			],
			"scale":[
				1,
				1.0000001192092896,
				1.000000238418579
			],
			"translation":[
				1.0421618944342001e-14,
				2.0000007152557373,
				0
			]
		},
		{
			"children":[
				21
			],
			"name":"Bone.014",
			"rotation":[
				6.478478557515313e-21,
				1.4210854715202004e-14,
				1.0587911840678754e-21,
				1
			],
			"translation":[
				0,
				4,
				-1.1920928955078125e-07
			]
		},
		{
			"mesh":10,
			"name":"Cube.003",
			"rotation":[
				-1.947071694985425e-07,
				-7.450581485102248e-09,
				-1,
				1.663856803257955e-14
			],
			"scale":[
				1,
				1.0000001192092896,
				1.000000238418579
			],
			"translation":[
				1.0421615556210212e-14,
				1.9999995231628418,
				0
			]
		},
		{
			"children":[
				22,
				23
			],
			"name":"Bone.013",
			"rotation":[
				-0.3826834559440613,
				9.613574076616869e-15,
				1.490223979772054e-07,
				0.9238795042037964
			],
			"translation":[
				0,
				1.4142134189605713,
				-2.980232238769531e-07
			]
		},
		{
			"children":[
				24
			],
			"name":"Bone.012",
			"rotation":[
				1.7988600120588671e-07,
				0.38268348574638367,
				0.9238795638084412,
				7.451121319945742e-08
			],
			"scale":[
				1,
				0.9999998211860657,
				0.9999998211860657
			]
		},
		{
			"children":[
				15,
				20,
				25
			],
			"name":"Armature",
			"translation":[
				0,
				8,
				0
			]
		}
	],
	"materials":[
		{
			"doubleSided":true,
			"name":"Material",
			"pbrMetallicRoughness":{
				"baseColorFactor":[
					0.800000011920929,
					0.800000011920929,
					0.800000011920929,
					1
				],
				"metallicFactor":0,
				"roughnessFactor":0.5
			}
		}
	],
	"meshes":[
		{
			"name":"Cube",
			"primitives":[
				{
					"attributes":{
						"POSITION":0,
						"NORMAL":1,
						"TEXCOORD_0":2
					},
					"indices":3,
					"material":0
				}
			]
		},
		{
			"name":"Cube.010",
			"primitives":[
				{
					"attributes":{
						"POSITION":4,
						"NORMAL":5,
						"TEXCOORD_0":6
					},
					"indices":7
				}
			]
		},
		{
			"name":"Cube.008",
			"primitives":[
				{
					"attributes":{
						"POSITION":8,
						"NORMAL":9,
						"TEXCOORD_0":10
					},
					"indices":7
				}
			]
		},
		{
			"name":"Cube.009",
			"primitives":[
				{
					"attributes":{
						"POSITION":11,
						"NORMAL":12,
						"TEXCOORD_0":13
					},
					"indices":7
				}
			]
		},
		{
			"name":"Cube.007",
			"primitives":[
				{
					"attributes":{
						"POSITION":14,
						"NORMAL":15,
						"TEXCOORD_0":16
					},
					"indices":7
				}
			]
		},
		{
			"name":"Cube.001",
			"primitives":[
				{
					"attributes":{
						"POSITION":17,
						"NORMAL":18,
						"TEXCOORD_0":19
					},
					"indices":3,
					"material":0
				}
			]
		},
		{
			"name":"Cube.002",
			"primitives":[
				{
					"attributes":{
						"POSITION":20,
						"NORMAL":21,
						"TEXCOORD_0":22
					},
					"indices":23,
					"material":0
				}
			]
		},
		{
			"name":"Cube.006",
			"primitives":[
				{
					"attributes":{
						"POSITION":24,
						"NORMAL":25,
						"TEXCOORD_0":26
					},
					"indices":7
				}
			]
		},
		{
			"name":"Cube.004",
			"primitives":[
				{
					"attributes":{
						"POSITION":27,
						"NORMAL":28,
						"TEXCOORD_0":29
					},
					"indices":7
				}
			]
		},
		{
			"name":"Cube.005",
			"primitives":[
				{
					"attributes":{
						"POSITION":30,
						"NORMAL":31,
						"TEXCOORD_0":32
					},
					"indices":7
				}
			]
		},
		{
			"name":"Cube.003",
			"primitives":[
				{
					"attributes":{
						"POSITION":33,
						"NORMAL":34,
						"TEXCOORD_0":35
					},
					"indices":7
				}
			]
		}
	],
	"skins":[
		{
			"inverseBindMatrices":36,
			"joints":[
				15,
				13,
				1,
				6,
				5,
				3,
				11,
				10,
				8,
				20,
				19,
				17,
				25,
				24,
				22
			],
			"name":"Armature"
		}
	],
	"accessors":[
		{
			"bufferView":0,
			"componentType":5126,
			"count":24,
			"max":[
				1,
				1,
				1
			],
			"min":[
				-1,
				-1,
				-1
			],
			"type":"VEC3"
		},
		{
			"bufferView":1,
			"componentType":5126,
			"count":24,
			"type":"VEC3"
		},
		{
			"bufferView":2,
			"componentType":5126,
			"count":24,
			"type":"VEC2"
		},
		{
			"bufferView":3,
			"componentType":5123,
			"count":36,
			"type":"SCALAR"
		},
		{
			"bufferView":4,
			"componentType":5126,
			"count":24,
			"max":[
				0.25,
				1,
				0.25
			],
			"min":[
				-0.25,
				-2,
				-0.25
			],
			"type":"VEC3"
		},
		{
			"bufferView":5,
			"componentType":5126,
			"count":24,
			"type":"VEC3"
		},
		{
			"bufferView":6,
			"componentType":5126,
			"count":24,
			"type":"VEC2"
		},
		{
			"bufferView":7,
			"componentType":5123,
			"count":36,
			"type":"SCALAR"
		},
		{
			"bufferView":8,
			"componentType":5126,
			"count":24,
			"max":[
				0.25,
				1,
				0.25
			],
			"min":[
				-0.25,
				-2,
				-0.25
			],
			"type":"VEC3"
		},
		{
			"bufferView":9,
			"componentType":5126,
			"count":24,
			"type":"VEC3"
		},
		{
			"bufferView":10,
			"componentType":5126,
			"count":24,
			"type":"VEC2"
		},
		{
			"bufferView":11,
			"componentType":5126,
			"count":24,
			"max":[
				0.25,
				1,
				0.25
			],
			"min":[
				-0.25,
				-2,
				-0.25
			],
			"type":"VEC3"
		},
		{
			"bufferView":12,
			"componentType":5126,
			"count":24,
			"type":"VEC3"
		},
		{
			"bufferView":13,
			"componentType":5126,
			"count":24,
			"type":"VEC2"
		},
		{
			"bufferView":14,
			"componentType":5126,
			"count":24,
			"max":[
				0.25,
				1,
				0.25
			],
			"min":[
				-0.25,
				-2,
				-0.25
			],
			"type":"VEC3"
		},
		{
			"bufferView":15,
			"componentType":5126,
			"count":24,
			"type":"VEC3"
		},
		{
			"bufferView":16,
			"componentType":5126,
			"count":24,
			"type":"VEC2"
		},
		{
			"bufferView":17,
			"componentType":5126,
			"count":24,
			"max":[
				0.6067131757736206,
				1,
				2.299999952316284
			],
			"min":[
				-0.6067131757736206,
				-1,
				-2.299999952316284
			],
			"type":"VEC3"
		},
		{
			"bufferView":18,
			"componentType":5126,
			"count":24,
			"type":"VEC3"
		},
		{
			"bufferView":19,
			"componentType":5126,
			"count":24,
			"type":"VEC2"
		},
		{
			"bufferView":20,
			"componentType":5126,
			"count":24,
			"max":[
				0.6067131757736206,
				0.5079385638237,
				1.1682586669921875
			],
			"min":[
				-0.6067131757736206,
				-0.5079385638237,
				-1.1682586669921875
			],
			"type":"VEC3"
		},
		{
			"bufferView":21,
			"componentType":5126,
			"count":24,
			"type":"VEC3"
		},
		{
			"bufferView":22,
			"componentType":5126,
			"count":24,
			"type":"VEC2"
		},
		{
			"bufferView":23,
			"componentType":5123,
			"count":36,
			"type":"SCALAR"
		},
		{
			"bufferView":24,
			"componentType":5126,
			"count":24,
			"max":[
				0.5,
				2,
				0.5
			],
			"min":[
				-0.5,
				-1,
				-0.5
			],
			"type":"VEC3"
		},
		{
			"bufferView":25,
			"componentType":5126,
			"count":24,
			"type":"VEC3"
		},
		{
			"bufferView":26,
			"componentType":5126,
			"count":24,
			"type":"VEC2"
		},
		{
			"bufferView":27,
			"componentType":5126,
			"count":24,
			"max":[
				0.5,
				2,
				0.5
			],
			"min":[
				-0.5,
				-1,
				-0.5
			],
			"type":"VEC3"
		},
		{
			"bufferView":28,
			"componentType":5126,
			"count":24,
			"type":"VEC3"
		},
		{
			"bufferView":29,
			"componentType":5126,
			"count":24,
			"type":"VEC2"
		},
		{
			"bufferView":30,
			"componentType":5126,
			"count":24,
			"max":[
				0.5,
				2,
				0.5
			],
			"min":[
				-0.5,
				-1,
				-0.5
			],
			"type":"VEC3"
		},
		{
			"bufferView":31,
			"componentType":5126,
			"count":24,
			"type":"VEC3"
		},
		{
			"bufferView":32,
			"componentType":5126,
			"count":24,
			"type":"VEC2"
		},
		{
			"bufferView":33,
			"componentType":5126,
			"count":24,
			"max":[
				0.5,
				2,
				0.5
			],
			"min":[
				-0.5,
				-1,
				-0.5
			],
			"type":"VEC3"
		},
		{
			"bufferView":34,
			"componentType":5126,
			"count":24,
			"type":"VEC3"
		},
		{
			"bufferView":35,
			"componentType":5126,
			"count":24,
			"type":"VEC2"
		},
		{
			"bufferView":36,
			"componentType":5126,
			"count":15,
			"type":"MAT4"
		}
	],
	"bufferViews":[
		{
			"buffer":0,
			"byteLength":288,
			"byteOffset":0,
			"target":34962
		},
		{
			"buffer":0,
			"byteLength":288,
			"byteOffset":288,
			"target":34962
		},
		{
			"buffer":0,
			"byteLength":192,
			"byteOffset":576,
			"target":34962
		},
		{
			"buffer":0,
			"byteLength":72,
			"byteOffset":768,
			"target":34963
		},
		{
			"buffer":0,
			"byteLength":288,
			"byteOffset":840,
			"target":34962
		},
		{
			"buffer":0,
			"byteLength":288,
			"byteOffset":1128,
			"target":34962
		},
		{
			"buffer":0,
			"byteLength":192,
			"byteOffset":1416,
			"target":34962
		},
		{
			"buffer":0,
			"byteLength":72,
			"byteOffset":1608,
			"target":34963
		},
		{
			"buffer":0,
			"byteLength":288,
			"byteOffset":1680,
			"target":34962
		},
		{
			"buffer":0,
			"byteLength":288,
			"byteOffset":1968,
			"target":34962
		},
		{
			"buffer":0,
			"byteLength":192,
			"byteOffset":2256,
			"target":34962
		},
		{
			"buffer":0,
			"byteLength":288,
			"byteOffset":2448,
			"target":34962
		},
		{
			"buffer":0,
			"byteLength":288,
			"byteOffset":2736,
			"target":34962
		},
		{
			"buffer":0,
			"byteLength":192,
			"byteOffset":3024,
			"target":34962
		},
		{
			"buffer":0,
			"byteLength":288,
			"byteOffset":3216,
			"target":34962
		},
		{
			"buffer":0,
			"byteLength":288,
			"byteOffset":3504,
			"target":34962
		},
		{
			"buffer":0,
			"byteLength":192,
			"byteOffset":3792,
			"target":34962
		},
		{
			"buffer":0,
			"byteLength":288,
			"byteOffset":3984,
			"target":34962
		},
		{
			"buffer":0,
			"byteLength":288,
			"byteOffset":4272,
			"target":34962
		},
		{
			"buffer":0,
			"byteLength":192,
			"byteOffset":4560,
			"target":34962
		},
		{
			"buffer":0,
			"byteLength":288,
			"byteOffset":4752,
			"target":34962
		},
		{
			"buffer":0,
			"byteLength":288,
			"byteOffset":5040,
			"target":34962
		},
		{
			"buffer":0,
			"byteLength":192,
			"byteOffset":5328,
			"target":34962
		},
		{
			"buffer":0,
			"byteLength":72,
			"byteOffset":5520,
			"target":34963
		},
		{
			"buffer":0,
			"byteLength":288,
			"byteOffset":5592,
			"target":34962
		},
		{
			"buffer":0,
			"byteLength":288,
			"byteOffset":5880,
			"target":34962
		},
		{
			"buffer":0,
			"byteLength":192,
			"byteOffset":6168,
			"target":34962
		},
		{
			"buffer":0,
			"byteLength":288,
			"byteOffset":6360,
			"target":34962
		},
		{
			"buffer":0,
			"byteLength":288,
			"byteOffset":6648,
			"target":34962
		},
		{
			"buffer":0,
			"byteLength":192,
			"byteOffset":6936,
			"target":34962
		},
		{
			"buffer":0,
			"byteLength":288,
			"byteOffset":7128,
			"target":34962
		},
		{
			"buffer":0,
			"byteLength":288,
			"byteOffset":7416,
			"target":34962
		},
		{
			"buffer":0,
			"byteLength":192,
			"byteOffset":7704,
			"target":34962
		},
		{
			"buffer":0,
			"byteLength":288,
			"byteOffset":7896,
			"target":34962
		},
		{
			"buffer":0,
			"byteLength":288,
			"byteOffset":8184,
			"target":34962
		},
		{
			"buffer":0,
			"byteLength":192,
			"byteOffset":8472,
			"target":34962
		},
		{
			"buffer":0,
			"byteLength":960,
			"byteOffset":8664
		}
	],
	"buffers":[
		{
			"byteLength":9624,
			"uri":"data:application/octet-stream;base64,"
		}
	]
}
