{
	"asset":{
		"generator":"Khronos glTF Blender I/O v3.6.27",
		"version":"2.0"
	},
	"scene":0,
	"scenes":[
		{
			"name":"Scene",
			"nodes":[
				0,
				1,
				2,
				3,
				4,
				5,
				6,
				7,
				8,
				9,
				10,
				11,
				12,
				13,
				14,
				15
			]
		}
	],
	"nodes":[
		{
			"extras":{
				"type":"player_start"
			},
			"name":"Empty",
			"translation":[
				0,
				2,
				8
			]
		},
		{
			"extras":{
				"type":"sb"
			},
			"mesh":0,
			"name":"Plane.002",
			"translation":[
				-20,
				0,
				-20
			]
		},
		{
			"extras":{
				"type":"sb"
			},
			"mesh":1,
			"name":"Plane.003",
			"translation":[
				-40,
				10,
				-20
			]
		},
		{
			"extras":{
				"type":"sb"
			},
			"mesh":1,
			"name":"Plane.005",
			"translation":[
				-80,
				10,
				-20
			]
		},
		{
			"extras":{
				"type":"sb"
			},
			"mesh":2,
			"name":"Cube.003",
			"translation":[
				0,
				0,
				-20
			]
		},
		{
			"extras":{
				"type":"sb"
			},
			"mesh":2,
			"name":"Cube.004"
		},
		{
			"extras":{
				"type":"sb"
			},
			"mesh":1,
			"name":"Plane.008",
			"translation":[
				-100,
				10,
				-20
			]
		},
		{
			"extras":{
				"type":"sb"
			},
			"mesh":1,
			"name":"Plane.004",
			"translation":[
				-40,
				20,
				-60
			]
		},
		{
			"extras":{
				"type":"sb"
			},
			"mesh":3,
			"name":"Plane.001",
			"rotation":[
				0,
				-0.7071068286895752,
				0,
				0.7071068286895752
			],
			"translation":[
				-40,
				10,
				-40
			]
		},
		{
			"extras":{
				"sound_source":"music_test_1",
				"type":"music"
			},
			"mesh":4,
			"name":"Cube",
			"translation":[
				9,
				2,
				-27
			]
		},
		{
			"extras":{
				"type":"passage",
				"passage_target":"test_cut_cene"
			},
			"mesh":5,
			"name":"exit_triger",
			"scale":[
				1.512597918510437,
				5.617700576782227,
				5.617700576782227
			],
			"translation":[
				-108,
				15,
				-19
			]
		},
		{
			"extras":{
				"type":"mensage",
				"mensage":"hello world"
			},
			"mesh":6,
			"name":"Cube.002",
			"translation":[
				-40,
				20,
				-68.84748840332031
			]
		},
		{
			"mesh":7,
			"name":"exit_arow",
			"translation":[
				-108,
				29,
				-19
			]
		},
		{
			"mesh":8,
			"name":"exit_signe",
			"rotation":[
				0.5,
				0.5,
				-0.5,
				0.5
			],
			"scale":[
				10,
				10,
				10
			],
			"translation":[
				-108,
				47,
				-19
			]
		},
		{
			"mesh":9,
			"name":"wire_frame",
			"scale":[
				1.512597918510437,
				5.617700576782227,
				5.617700576782227
			],
			"translation":[
				-108,
				15,
				-19
			]
		},
		{
			"mesh":10,
			"name":"Cube.001",
			"translation":[
				-48.83615493774414,
				42.497589111328125,
				47.66086196899414
			]
		}
	],
	"materials":[
		{
			"doubleSided":true,
			"name":"white",
			"pbrMetallicRoughness":{
				"baseColorFactor":[
					0.800000011920929,
					0.800000011920929,
					0.800000011920929,
					1
				],
				"metallicFactor":0,
				"roughnessFactor":0.5
			}
		},
		{
			"alphaMode":"BLEND",
			"doubleSided":true,
			"name":"triger",
			"pbrMetallicRoughness":{
				"baseColorFactor":[
					1,
					1,
					0,
					0.14507770538330078
				],
				"metallicFactor":0,
				"roughnessFactor":0.5
			}
		},
		{
			"doubleSided":true,
			"name":"red",
			"pbrMetallicRoughness":{
				"baseColorFactor":[
					0.8000000715255737,
					0,
					0.005124952178448439,
					1
				],
				"metallicFactor":0,
				"roughnessFactor":0.5
			}
		},
		{
			"doubleSided":true,
			"name":"green",
			"pbrMetallicRoughness":{
				"baseColorFactor":[
					0.0034884619526565075,
					0.8000000715255737,
					0,
					1
				],
				"metallicFactor":0,
				"roughnessFactor":0.5
			}
		},
		{
			"doubleSided":true,
			"name":"smile_face",
			"pbrMetallicRoughness":{
				"baseColorTexture":{
					"index":0
				},
				"metallicFactor":0,
				"roughnessFactor":0.5
			}
		}
	],
	"meshes":[
		{
			"name":"Plane.001",
			"primitives":[
				{
					"attributes":{
						"POSITION":0,
						"NORMAL":1,
						"TEXCOORD_0":2
					},
					"indices":3,
					"material":0
				}
			]
		},
		{
			"name":"Plane",
			"primitives":[
				{
					"attributes":{
						"POSITION":4,
						"NORMAL":5,
						"TEXCOORD_0":6
					},
					"indices":3,
					"material":0
				}
			]
		},
		{
			"name":"Cube.001",
			"primitives":[
				{
					"attributes":{
						"POSITION":7,
						"NORMAL":8,
						"TEXCOORD_0":9
					},
					"indices":10,
					"material":0
				}
			]
		},
		{
			"name":"Plane.003",
			"primitives":[
				{
					"attributes":{
						"POSITION":11,
						"NORMAL":12,
						"TEXCOORD_0":13
					},
					"indices":14,
					"material":0
				}
			]
		},
		{
			"name":"Cube",
			"primitives":[
				{
					"attributes":{
						"POSITION":15,
						"NORMAL":16,
						"TEXCOORD_0":17
					},
					"indices":18
				}
			]
		},
		{
			"name":"Cube.002",
			"primitives":[
				{
					"attributes":{
						"POSITION":19,
						"NORMAL":20,
						"TEXCOORD_0":21
					},
					"indices":10,
					"material":1
				}
			]
		},
		{
			"name":"Cube.003",
			"primitives":[
				{
					"attributes":{
						"POSITION":22,
						"NORMAL":23,
						"TEXCOORD_0":24
					},
					"indices":25
				}
			]
		},
		{
			"name":"Cube.004",
			"primitives":[
				{
					"attributes":{
						"POSITION":26,
						"NORMAL":27,
						"TEXCOORD_0":28
					},
					"indices":29,
					"material":2
				}
			]
		},
		{
			"name":"Text",
			"primitives":[
				{
					"attributes":{
						"POSITION":30,
						"NORMAL":31,
						"TEXCOORD_0":32
					},
					"indices":33,
					"material":2
				}
			]
		},
		{
			"name":"Cube.005",
			"primitives":[
				{
					"attributes":{
						"POSITION":34,
						"NORMAL":35,
						"TEXCOORD_0":36
					},
					"indices":18,
					"material":3
				}
			]
		},
		{
			"name":"Cube.006",
			"primitives":[
				{
					"attributes":{
						"POSITION":37,
						"NORMAL":38,
						"TEXCOORD_0":39
					},
					"indices":40,
					"material":4
				}
			]
		}
	],
	"textures":[
		{
			"sampler":0,
			"source":0
		}
	],
	"images":[
		{
			"bufferView":41,
			"mimeType":"image/png",
			"name":"test_texture"
		}
	],
	"accessors":[
		{
			"bufferView":0,
			"componentType":5126,
			"count":24,
			"max":[
				10,
				10,
				10
			],
			"min":[
				-10,
				-1,
				-10
			],
			"type":"VEC3"
		},
		{
			"bufferView":1,
			"componentType":5126,
			"count":24,
			"type":"VEC3"
		},
		{
			"bufferView":2,
			"componentType":5126,
			"count":24,
			"type":"VEC2"
		},
		{
			"bufferView":3,
			"componentType":5123,
			"count":36,
			"type":"SCALAR"
		},
		{
			"bufferView":4,
			"componentType":5126,
			"count":24,
			"max":[
				10,
				0,
				10
			],
			"min":[
				-10,
				-1,
				-10
			],
			"type":"VEC3"
		},
		{
			"bufferView":5,
			"componentType":5126,
			"count":24,
			"type":"VEC3"
		},
		{
			"bufferView":6,
			"componentType":5126,
			"count":24,
			"type":"VEC2"
		},
		{
			"bufferView":7,
			"componentType":5126,
			"count":24,
			"max":[
				10,
				0,
				10
			],
			"min":[
				-10,
				-2,
				-10
			],
			"type":"VEC3"
		},
		{
			"bufferView":8,
			"componentType":5126,
			"count":24,
			"type":"VEC3"
		},
		{
			"bufferView":9,
			"componentType":5126,
			"count":24,
			"type":"VEC2"
		},
		{
			"bufferView":10,
			"componentType":5123,
			"count":36,
			"type":"SCALAR"
		},
		{
			"bufferView":11,
			"componentType":5126,
			"count":64,
			"max":[
				10,
				10,
				10
			],
			"min":[
				-10,
				-1,
				-10
			],
			"type":"VEC3"
		},
		{
			"bufferView":12,
			"componentType":5126,
			"count":64,
			"type":"VEC3"
		},
		{
			"bufferView":13,
			"componentType":5126,
			"count":64,
			"type":"VEC2"
		},
		{
			"bufferView":14,
			"componentType":5123,
			"count":132,
			"type":"SCALAR"
		},
		{
			"bufferView":15,
			"componentType":5126,
			"count":192,
			"max":[
				1.1019023656845093,
				1.1019023656845093,
				1.1019023656845093
			],
			"min":[
				-1.1019023656845093,
				-1.1019023656845093,
				-1.1019023656845093
			],
			"type":"VEC3"
		},
		{
			"bufferView":16,
			"componentType":5126,
			"count":192,
			"type":"VEC3"
		},
		{
			"bufferView":17,
			"componentType":5126,
			"count":192,
			"type":"VEC2"
		},
		{
			"bufferView":18,
			"componentType":5123,
			"count":288,
			"type":"SCALAR"
		},
		{
			"bufferView":19,
			"componentType":5126,
			"count":24,
			"max":[
				1,
				1,
				1
			],
			"min":[
				-1,
				-1,
				-1
			],
			"type":"VEC3"
		},
		{
			"bufferView":20,
			"componentType":5126,
			"count":24,
			"type":"VEC3"
		},
		{
			"bufferView":21,
			"componentType":5126,
			"count":24,
			"type":"VEC2"
		},
		{
			"bufferView":22,
			"componentType":5126,
			"count":60,
			"max":[
				3.1999998092651367,
				11.247482299804688,
				1
			],
			"min":[
				-3.1999998092651367,
				0,
				-1
			],
			"type":"VEC3"
		},
		{
			"bufferView":23,
			"componentType":5126,
			"count":60,
			"type":"VEC3"
		},
		{
			"bufferView":24,
			"componentType":5126,
			"count":60,
			"type":"VEC2"
		},
		{
			"bufferView":25,
			"componentType":5123,
			"count":96,
			"type":"SCALAR"
		},
		{
			"bufferView":26,
			"componentType":5126,
			"count":50,
			"max":[
				1,
				9,
				4.06521463394165
			],
			"min":[
				-1,
				-3.0798377990722656,
				-4.06521463394165
			],
			"type":"VEC3"
		},
		{
			"bufferView":27,
			"componentType":5126,
			"count":50,
			"type":"VEC3"
		},
		{
			"bufferView":28,
			"componentType":5126,
			"count":50,
			"type":"VEC2"
		},
		{
			"bufferView":29,
			"componentType":5123,
			"count":84,
			"type":"SCALAR"
		},
		{
			"bufferView":30,
			"componentType":5126,
			"count":219,
			"max":[
				1.0139999389648438,
				0,
				0.30000001192092896
			],
			"min":[
				-0.956000030040741,
				-0.10000000149011612,
				-0.38200002908706665
			],
			"type":"VEC3"
		},
		{
			"bufferView":31,
			"componentType":5126,
			"count":219,
			"type":"VEC3"
		},
		{
			"bufferView":32,
			"componentType":5126,
			"count":219,
			"type":"VEC2"
		},
		{
			"bufferView":33,
			"componentType":5123,
			"count":384,
			"type":"SCALAR"
		},
		{
			"bufferView":34,
			"componentType":5126,
			"count":192,
			"max":[
				1.028867483139038,
				1.028867483139038,
				1.028867483139038
			],
			"min":[
				-1.028867483139038,
				-1.028867483139038,
				-1.028867483139038
			],
			"type":"VEC3"
		},
		{
			"bufferView":35,
			"componentType":5126,
			"count":192,
			"type":"VEC3"
		},
		{
			"bufferView":36,
			"componentType":5126,
			"count":192,
			"type":"VEC2"
		},
		{
			"bufferView":37,
			"componentType":5126,
			"count":24,
			"max":[
				9.999999046325684,
				10,
				0
			],
			"min":[
				-9.999999046325684,
				-10,
				-17
			],
			"type":"VEC3"
		},
		{
			"bufferView":38,
			"componentType":5126,
			"count":24,
			"type":"VEC3"
		},
		{
			"bufferView":39,
			"componentType":5126,
			"count":24,
			"type":"VEC2"
		},
		{
			"bufferView":40,
			"componentType":5123,
			"count":36,
			"type":"SCALAR"
		}
	],
	"bufferViews":[
		{
			"buffer":0,
			"byteLength":288,
			"byteOffset":0,
			"target":34962
		},
		{
			"buffer":0,
			"byteLength":288,
			"byteOffset":288,
			"target":34962
		},
		{
			"buffer":0,
			"byteLength":192,
			"byteOffset":576,
			"target":34962
		},
		{
			"buffer":0,
			"byteLength":72,
			"byteOffset":768,
			"target":34963
		},
		{
			"buffer":0,
			"byteLength":288,
			"byteOffset":840,
			"target":34962
		},
		{
			"buffer":0,
			"byteLength":288,
			"byteOffset":1128,
			"target":34962
		},
		{
			"buffer":0,
			"byteLength":192,
			"byteOffset":1416,
			"target":34962
		},
		{
			"buffer":0,
			"byteLength":288,
			"byteOffset":1608,
			"target":34962
		},
		{
			"buffer":0,
			"byteLength":288,
			"byteOffset":1896,
			"target":34962
		},
		{
			"buffer":0,
			"byteLength":192,
			"byteOffset":2184,
			"target":34962
		},
		{
			"buffer":0,
			"byteLength":72,
			"byteOffset":2376,
			"target":34963
		},
		{
			"buffer":0,
			"byteLength":768,
			"byteOffset":2448,
			"target":34962
		},
		{
			"buffer":0,
			"byteLength":768,
			"byteOffset":3216,
			"target":34962
		},
		{
			"buffer":0,
			"byteLength":512,
			"byteOffset":3984,
			"target":34962
		},
		{
			"buffer":0,
			"byteLength":264,
			"byteOffset":4496,
			"target":34963
		},
		{
			"buffer":0,
			"byteLength":2304,
			"byteOffset":4760,
			"target":34962
		},
		{
			"buffer":0,
			"byteLength":2304,
			"byteOffset":7064,
			"target":34962
		},
		{
			"buffer":0,
			"byteLength":1536,
			"byteOffset":9368,
			"target":34962
		},
		{
			"buffer":0,
			"byteLength":576,
			"byteOffset":10904,
			"target":34963
		},
		{
			"buffer":0,
			"byteLength":288,
			"byteOffset":11480,
			"target":34962
		},
		{
			"buffer":0,
			"byteLength":288,
			"byteOffset":11768,
			"target":34962
		},
		{
			"buffer":0,
			"byteLength":192,
			"byteOffset":12056,
			"target":34962
		},
		{
			"buffer":0,
			"byteLength":720,
			"byteOffset":12248,
			"target":34962
		},
		{
			"buffer":0,
			"byteLength":720,
			"byteOffset":12968,
			"target":34962
		},
		{
			"buffer":0,
			"byteLength":480,
			"byteOffset":13688,
			"target":34962
		},
		{
			"buffer":0,
			"byteLength":192,
			"byteOffset":14168,
			"target":34963
		},
		{
			"buffer":0,
			"byteLength":600,
			"byteOffset":14360,
			"target":34962
		},
		{
			"buffer":0,
			"byteLength":600,
			"byteOffset":14960,
			"target":34962
		},
		{
			"buffer":0,
			"byteLength":400,
			"byteOffset":15560,
			"target":34962
		},
		{
			"buffer":0,
			"byteLength":168,
			"byteOffset":15960,
			"target":34963
		},
		{
			"buffer":0,
			"byteLength":2628,
			"byteOffset":16128,
			"target":34962
		},
		{
			"buffer":0,
			"byteLength":2628,
			"byteOffset":18756,
			"target":34962
		},
		{
			"buffer":0,
			"byteLength":1752,
			"byteOffset":21384,
			"target":34962
		},
		{
			"buffer":0,
			"byteLength":768,
			"byteOffset":23136,
			"target":34963
		},
		{
			"buffer":0,
			"byteLength":2304,
			"byteOffset":23904,
			"target":34962
		},
		{
			"buffer":0,
			"byteLength":2304,
			"byteOffset":26208,
			"target":34962
		},
		{
			"buffer":0,
			"byteLength":1536,
			"byteOffset":28512,
			"target":34962
		},
		{
			"buffer":0,
			"byteLength":288,
			"byteOffset":30048,
			"target":34962
		},
		{
			"buffer":0,
			"byteLength":288,
			"byteOffset":30336,
			"target":34962
		},
		{
			"buffer":0,
			"byteLength":192,
			"byteOffset":30624,
			"target":34962
		},
		{
			"buffer":0,
			"byteLength":72,
			"byteOffset":30816,
			"target":34963
		},
		{
			"buffer":0,
			"byteLength":210,
			"byteOffset":30888
		}
	],
	"samplers":[
		{
			"magFilter":9729,
			"minFilter":9987
		}
	],
	"buffers":[
		{
			"byteLength":31100,
			"uri":"data:application/octet-stream;base64,"
		}
	]
}
