{
	"asset":{
		"generator":"Khronos glTF Blender I/O v3.6.27",
		"version":"2.0"
	},
	"scene":0,
	"scenes":[
		{
			"name":"Scene",
			"nodes":[
				0,
				1,
				2,
				3,
				4,
				5,
				6,
				7,
				8,
				9,
				10,
				11
			]
		}
	],
	"nodes":[
		{
			"extras":{
				"type":"player_start"
			},
			"name":"Empty",
			"translation":[
				0,
				2,
				8
			]
		},
		{
			"extras":{
				"type":"sb"
			},
			"mesh":0,
			"name":"Plane.002",
			"translation":[
				-20,
				0,
				-20
			]
		},
		{
			"extras":{
				"type":"sb"
			},
			"mesh":1,
			"name":"Plane.003",
			"translation":[
				-40,
				10,
				-20
			]
		},
		{
			"extras":{
				"type":"sb"
			},
			"mesh":1,
			"name":"Plane.005",
			"translation":[
				-80,
				10,
				-20
			]
		},
		{
			"extras":{
				"type":"sb"
			},
			"mesh":2,
			"name":"Cube.003",
			"translation":[
				0,
				0,
				-20
			]
		},
		{
			"extras":{
				"type":"sb"
			},
			"mesh":2,
			"name":"Cube.004"
		},
		{
			"extras":{
				"type":"sb"
			},
			"mesh":1,
			"name":"Plane.008",
			"translation":[
				-100,
				10,
				-20
			]
		},
		{
			"extras":{
				"type":"sb"
			},
			"mesh":1,
			"name":"Plane.004",
			"translation":[
				-40,
				20,
				-60
			]
		},
		{
			"extras":{
				"type":"sb"
			},
			"mesh":3,
			"name":"Plane.001",
			"rotation":[
				0,
				-0.7071068286895752,
				0,
				0.7071068286895752
			],
			"translation":[
				-40,
				10,
				-40
			]
		},
		{
			"extras":{
				"sound_source":"music_test_1",
				"type":"music"
			},
			"mesh":4,
			"name":"Cube",
			"translation":[
				9,
				2,
				-27
			]
		},
		{
			"extras":{
				"type":"passage",
				"passage_target":"test_cut_cene"
			},
			"mesh":5,
			"name":"Cube.001",
			"scale":[
				1.512597918510437,
				5.617700576782227,
				5.617700576782227
			],
			"translation":[
				-108,
				15,
				-19
			]
		},
		{
			"mesh":6,
			"name":"Cube.002",
			"translation":[
				-40,
				21,
				-68.84748840332031
			]
		}
	],
	"meshes":[
		{
			"name":"Plane.001",
			"primitives":[
				{
					"attributes":{
						"POSITION":0,
						"NORMAL":1,
						"TEXCOORD_0":2
					},
					"indices":3
				}
			]
		},
		{
			"name":"Plane",
			"primitives":[
				{
					"attributes":{
						"POSITION":4,
						"NORMAL":5,
						"TEXCOORD_0":6
					},
					"indices":3
				}
			]
		},
		{
			"name":"Cube.001",
			"primitives":[
				{
					"attributes":{
						"POSITION":7,
						"NORMAL":8,
						"TEXCOORD_0":9
					},
					"indices":10
				}
			]
		},
		{
			"name":"Plane.003",
			"primitives":[
				{
					"attributes":{
						"POSITION":11,
						"NORMAL":12,
						"TEXCOORD_0":13
					},
					"indices":14
				}
			]
		},
		{
			"name":"Cube",
			"primitives":[
				{
					"attributes":{
						"POSITION":15,
						"NORMAL":16,
						"TEXCOORD_0":17
					},
					"indices":18
				}
			]
		},
		{
			"name":"Cube.002",
			"primitives":[
				{
					"attributes":{
						"POSITION":19,
						"NORMAL":20,
						"TEXCOORD_0":21
					},
					"indices":10
				}
			]
		},
		{
			"name":"Cube.003",
			"primitives":[
				{
					"attributes":{
						"POSITION":22,
						"NORMAL":23,
						"TEXCOORD_0":24
					},
					"indices":25
				}
			]
		}
	],
	"accessors":[
		{
			"bufferView":0,
			"componentType":5126,
			"count":24,
			"max":[
				10,
				10,
				10
			],
			"min":[
				-10,
				-1,
				-10
			],
			"type":"VEC3"
		},
		{
			"bufferView":1,
			"componentType":5126,
			"count":24,
			"type":"VEC3"
		},
		{
			"bufferView":2,
			"componentType":5126,
			"count":24,
			"type":"VEC2"
		},
		{
			"bufferView":3,
			"componentType":5123,
			"count":36,
			"type":"SCALAR"
		},
		{
			"bufferView":4,
			"componentType":5126,
			"count":24,
			"max":[
				10,
				0,
				10
			],
			"min":[
				-10,
				-1,
				-10
			],
			"type":"VEC3"
		},
		{
			"bufferView":5,
			"componentType":5126,
			"count":24,
			"type":"VEC3"
		},
		{
			"bufferView":6,
			"componentType":5126,
			"count":24,
			"type":"VEC2"
		},
		{
			"bufferView":7,
			"componentType":5126,
			"count":24,
			"max":[
				10,
				0,
				10
			],
			"min":[
				-10,
				-2,
				-10
			],
			"type":"VEC3"
		},
		{
			"bufferView":8,
			"componentType":5126,
			"count":24,
			"type":"VEC3"
		},
		{
			"bufferView":9,
			"componentType":5126,
			"count":24,
			"type":"VEC2"
		},
		{
			"bufferView":10,
			"componentType":5123,
			"count":36,
			"type":"SCALAR"
		},
		{
			"bufferView":11,
			"componentType":5126,
			"count":64,
			"max":[
				10,
				10,
				10
			],
			"min":[
				-10,
				-1,
				-10
			],
			"type":"VEC3"
		},
		{
			"bufferView":12,
			"componentType":5126,
			"count":64,
			"type":"VEC3"
		},
		{
			"bufferView":13,
			"componentType":5126,
			"count":64,
			"type":"VEC2"
		},
		{
			"bufferView":14,
			"componentType":5123,
			"count":132,
			"type":"SCALAR"
		},
		{
			"bufferView":15,
			"componentType":5126,
			"count":192,
			"max":[
				1.1019023656845093,
				1.1019023656845093,
				1.1019023656845093
			],
			"min":[
				-1.1019023656845093,
				-1.1019023656845093,
				-1.1019023656845093
			],
			"type":"VEC3"
		},
		{
			"bufferView":16,
			"componentType":5126,
			"count":192,
			"type":"VEC3"
		},
		{
			"bufferView":17,
			"componentType":5126,
			"count":192,
			"type":"VEC2"
		},
		{
			"bufferView":18,
			"componentType":5123,
			"count":288,
			"type":"SCALAR"
		},
		{
			"bufferView":19,
			"componentType":5126,
			"count":24,
			"max":[
				1,
				1,
				1
			],
			"min":[
				-1,
				-1,
				-1
			],
			"type":"VEC3"
		},
		{
			"bufferView":20,
			"componentType":5126,
			"count":24,
			"type":"VEC3"
		},
		{
			"bufferView":21,
			"componentType":5126,
			"count":24,
			"type":"VEC2"
		},
		{
			"bufferView":22,
			"componentType":5126,
			"count":60,
			"max":[
				3.1999998092651367,
				10.247482299804688,
				1
			],
			"min":[
				-3.1999998092651367,
				-1,
				-1
			],
			"type":"VEC3"
		},
		{
			"bufferView":23,
			"componentType":5126,
			"count":60,
			"type":"VEC3"
		},
		{
			"bufferView":24,
			"componentType":5126,
			"count":60,
			"type":"VEC2"
		},
		{
			"bufferView":25,
			"componentType":5123,
			"count":96,
			"type":"SCALAR"
		}
	],
	"bufferViews":[
		{
			"buffer":0,
			"byteLength":288,
			"byteOffset":0,
			"target":34962
		},
		{
			"buffer":0,
			"byteLength":288,
			"byteOffset":288,
			"target":34962
		},
		{
			"buffer":0,
			"byteLength":192,
			"byteOffset":576,
			"target":34962
		},
		{
			"buffer":0,
			"byteLength":72,
			"byteOffset":768,
			"target":34963
		},
		{
			"buffer":0,
			"byteLength":288,
			"byteOffset":840,
			"target":34962
		},
		{
			"buffer":0,
			"byteLength":288,
			"byteOffset":1128,
			"target":34962
		},
		{
			"buffer":0,
			"byteLength":192,
			"byteOffset":1416,
			"target":34962
		},
		{
			"buffer":0,
			"byteLength":288,
			"byteOffset":1608,
			"target":34962
		},
		{
			"buffer":0,
			"byteLength":288,
			"byteOffset":1896,
			"target":34962
		},
		{
			"buffer":0,
			"byteLength":192,
			"byteOffset":2184,
			"target":34962
		},
		{
			"buffer":0,
			"byteLength":72,
			"byteOffset":2376,
			"target":34963
		},
		{
			"buffer":0,
			"byteLength":768,
			"byteOffset":2448,
			"target":34962
		},
		{
			"buffer":0,
			"byteLength":768,
			"byteOffset":3216,
			"target":34962
		},
		{
			"buffer":0,
			"byteLength":512,
			"byteOffset":3984,
			"target":34962
		},
		{
			"buffer":0,
			"byteLength":264,
			"byteOffset":4496,
			"target":34963
		},
		{
			"buffer":0,
			"byteLength":2304,
			"byteOffset":4760,
			"target":34962
		},
		{
			"buffer":0,
			"byteLength":2304,
			"byteOffset":7064,
			"target":34962
		},
		{
			"buffer":0,
			"byteLength":1536,
			"byteOffset":9368,
			"target":34962
		},
		{
			"buffer":0,
			"byteLength":576,
			"byteOffset":10904,
			"target":34963
		},
		{
			"buffer":0,
			"byteLength":288,
			"byteOffset":11480,
			"target":34962
		},
		{
			"buffer":0,
			"byteLength":288,
			"byteOffset":11768,
			"target":34962
		},
		{
			"buffer":0,
			"byteLength":192,
			"byteOffset":12056,
			"target":34962
		},
		{
			"buffer":0,
			"byteLength":720,
			"byteOffset":12248,
			"target":34962
		},
		{
			"buffer":0,
			"byteLength":720,
			"byteOffset":12968,
			"target":34962
		},
		{
			"buffer":0,
			"byteLength":480,
			"byteOffset":13688,
			"target":34962
		},
		{
			"buffer":0,
			"byteLength":192,
			"byteOffset":14168,
			"target":34963
		}
	],
	"buffers":[
		{
			"byteLength":14360,
			"uri":"data:application/octet-stream;base64,"
		}
	]
}
