{
	"asset":{
		"generator":"Khronos glTF Blender I/O v3.6.27",
		"version":"2.0"
	},
	"scene":0,
	"scenes":[
		{
			"name":"Scene",
			"nodes":[
				0,
				1,
				2,
				3,
				4,
				5,
				6,
				7,
				8,
				9,
				10,
				11,
				12,
				13,
				14,
				15,
				16,
				17,
				18,
				19,
				20
			]
		}
	],
	"nodes":[
		{
			"extras":{
				"type":"player_start"
			},
			"name":"Empty",
			"translation":[
				0,
				2,
				8
			]
		},
		{
			"extras":{
				"type":"sb"
			},
			"mesh":0,
			"name":"Plane.002",
			"translation":[
				-20,
				0,
				-20
			]
		},
		{
			"extras":{
				"type":"sb"
			},
			"mesh":1,
			"name":"Plane.003",
			"translation":[
				-40,
				10,
				-20
			]
		},
		{
			"extras":{
				"type":"sb"
			},
			"mesh":1,
			"name":"Plane.005",
			"translation":[
				-80,
				10,
				-20
			]
		},
		{
			"extras":{
				"type":"rb"
			},
			"mesh":2,
			"name":"Cube",
			"rotation":[
				0.090424545109272,
				0.07609710097312927,
				0.19795288145542145,
				0.9730607867240906
			],
			"translation":[
				1.3394144773483276,
				2,
				-30.124794006347656
			]
		},
		{
			"extras":{
				"type":"rb"
			},
			"mesh":2,
			"name":"Cube.001",
			"rotation":[
				0.03583567589521408,
				0.046131134033203125,
				0.16617149114608765,
				0.9843651652336121
			],
			"translation":[
				-1,
				2,
				-29
			]
		},
		{
			"extras":{
				"type":"rb"
			},
			"mesh":2,
			"name":"Cube.002",
			"rotation":[
				0.12174507230520248,
				-0.02328784577548504,
				-0.05455808341503143,
				0.9907872080802917
			],
			"translation":[
				0,
				5,
				-29
			]
		},
		{
			"extras":{
				"type":"sb"
			},
			"mesh":3,
			"name":"Cube.003",
			"translation":[
				0,
				0,
				-20
			]
		},
		{
			"extras":{
				"type":"sb"
			},
			"mesh":3,
			"name":"Cube.004"
		},
		{
			"extras":{
				"type":"rb"
			},
			"mesh":4,
			"name":"Cube.005",
			"rotation":[
				0,
				0,
				0.21859955787658691,
				0.9758146405220032
			],
			"translation":[
				0,
				6,
				-5
			]
		},
		{
			"extras":{
				"type":"rb"
			},
			"mesh":4,
			"name":"Cube.006",
			"rotation":[
				0,
				0,
				0.21859955787658691,
				0.9758146405220032
			],
			"translation":[
				0,
				6,
				-3
			]
		},
		{
			"extras":{
				"type":"rb"
			},
			"mesh":4,
			"name":"Cube.007",
			"rotation":[
				0,
				0,
				0.21859955787658691,
				0.9758146405220032
			],
			"translation":[
				0,
				9,
				-5
			]
		},
		{
			"extras":{
				"type":"rb"
			},
			"mesh":4,
			"name":"Cube.008",
			"rotation":[
				0,
				0,
				0.21859955787658691,
				0.9758146405220032
			],
			"translation":[
				0,
				9,
				-3
			]
		},
		{
			"extras":{
				"type":"rb"
			},
			"mesh":4,
			"name":"Cube.009",
			"rotation":[
				0,
				0,
				0.21859955787658691,
				0.9758146405220032
			],
			"translation":[
				3,
				6,
				-5
			]
		},
		{
			"extras":{
				"type":"rb"
			},
			"mesh":4,
			"name":"Cube.010",
			"rotation":[
				0,
				0,
				0.21859955787658691,
				0.9758146405220032
			],
			"translation":[
				3,
				6,
				-3
			]
		},
		{
			"extras":{
				"type":"rb"
			},
			"mesh":4,
			"name":"Cube.011",
			"rotation":[
				0,
				0,
				0.21859955787658691,
				0.9758146405220032
			],
			"translation":[
				3,
				9,
				-5
			]
		},
		{
			"extras":{
				"type":"rb"
			},
			"mesh":4,
			"name":"Cube.012",
			"rotation":[
				0,
				0,
				0.21859955787658691,
				0.9758146405220032
			],
			"translation":[
				3,
				9,
				-3
			]
		},
		{
			"extras":{
				"type":"rb"
			},
			"mesh":4,
			"name":"Cube.013",
			"rotation":[
				0,
				0,
				0.21859955787658691,
				0.9758146405220032
			],
			"translation":[
				-3,
				6,
				-5
			]
		},
		{
			"extras":{
				"type":"rb"
			},
			"mesh":4,
			"name":"Cube.014",
			"rotation":[
				0,
				0,
				0.21859955787658691,
				0.9758146405220032
			],
			"translation":[
				-3,
				6,
				-3
			]
		},
		{
			"extras":{
				"type":"rb"
			},
			"mesh":4,
			"name":"Cube.015",
			"rotation":[
				0,
				0,
				0.21859955787658691,
				0.9758146405220032
			],
			"translation":[
				-3,
				9,
				-5
			]
		},
		{
			"extras":{
				"type":"rb"
			},
			"mesh":4,
			"name":"Cube.016",
			"rotation":[
				0,
				0,
				0.21859955787658691,
				0.9758146405220032
			],
			"translation":[
				-3,
				9,
				-3
			]
		}
	],
	"meshes":[
		{
			"name":"Plane.001",
			"primitives":[
				{
					"attributes":{
						"POSITION":0,
						"NORMAL":1,
						"TEXCOORD_0":2
					},
					"indices":3
				}
			]
		},
		{
			"name":"Plane",
			"primitives":[
				{
					"attributes":{
						"POSITION":4,
						"NORMAL":5,
						"TEXCOORD_0":6
					},
					"indices":3
				}
			]
		},
		{
			"name":"Cube",
			"primitives":[
				{
					"attributes":{
						"POSITION":7,
						"NORMAL":8,
						"TEXCOORD_0":9
					},
					"indices":10
				}
			]
		},
		{
			"name":"Cube.001",
			"primitives":[
				{
					"attributes":{
						"POSITION":11,
						"NORMAL":12,
						"TEXCOORD_0":13
					},
					"indices":10
				}
			]
		},
		{
			"name":"Cube.002",
			"primitives":[
				{
					"attributes":{
						"POSITION":14,
						"NORMAL":15,
						"TEXCOORD_0":16
					},
					"indices":10
				}
			]
		}
	],
	"accessors":[
		{
			"bufferView":0,
			"componentType":5126,
			"count":24,
			"max":[
				10,
				10,
				10
			],
			"min":[
				-10,
				-1,
				-10
			],
			"type":"VEC3"
		},
		{
			"bufferView":1,
			"componentType":5126,
			"count":24,
			"type":"VEC3"
		},
		{
			"bufferView":2,
			"componentType":5126,
			"count":24,
			"type":"VEC2"
		},
		{
			"bufferView":3,
			"componentType":5123,
			"count":36,
			"type":"SCALAR"
		},
		{
			"bufferView":4,
			"componentType":5126,
			"count":24,
			"max":[
				10,
				0,
				10
			],
			"min":[
				-10,
				-1,
				-10
			],
			"type":"VEC3"
		},
		{
			"bufferView":5,
			"componentType":5126,
			"count":24,
			"type":"VEC3"
		},
		{
			"bufferView":6,
			"componentType":5126,
			"count":24,
			"type":"VEC2"
		},
		{
			"bufferView":7,
			"componentType":5126,
			"count":24,
			"max":[
				1,
				1,
				1
			],
			"min":[
				-1,
				-1,
				-1
			],
			"type":"VEC3"
		},
		{
			"bufferView":8,
			"componentType":5126,
			"count":24,
			"type":"VEC3"
		},
		{
			"bufferView":9,
			"componentType":5126,
			"count":24,
			"type":"VEC2"
		},
		{
			"bufferView":10,
			"componentType":5123,
			"count":36,
			"type":"SCALAR"
		},
		{
			"bufferView":11,
			"componentType":5126,
			"count":24,
			"max":[
				10,
				0,
				10
			],
			"min":[
				-10,
				-2,
				-10
			],
			"type":"VEC3"
		},
		{
			"bufferView":12,
			"componentType":5126,
			"count":24,
			"type":"VEC3"
		},
		{
			"bufferView":13,
			"componentType":5126,
			"count":24,
			"type":"VEC2"
		},
		{
			"bufferView":14,
			"componentType":5126,
			"count":24,
			"max":[
				1,
				1,
				1
			],
			"min":[
				-1,
				-1,
				-1
			],
			"type":"VEC3"
		},
		{
			"bufferView":15,
			"componentType":5126,
			"count":24,
			"type":"VEC3"
		},
		{
			"bufferView":16,
			"componentType":5126,
			"count":24,
			"type":"VEC2"
		}
	],
	"bufferViews":[
		{
			"buffer":0,
			"byteLength":288,
			"byteOffset":0,
			"target":34962
		},
		{
			"buffer":0,
			"byteLength":288,
			"byteOffset":288,
			"target":34962
		},
		{
			"buffer":0,
			"byteLength":192,
			"byteOffset":576,
			"target":34962
		},
		{
			"buffer":0,
			"byteLength":72,
			"byteOffset":768,
			"target":34963
		},
		{
			"buffer":0,
			"byteLength":288,
			"byteOffset":840,
			"target":34962
		},
		{
			"buffer":0,
			"byteLength":288,
			"byteOffset":1128,
			"target":34962
		},
		{
			"buffer":0,
			"byteLength":192,
			"byteOffset":1416,
			"target":34962
		},
		{
			"buffer":0,
			"byteLength":288,
			"byteOffset":1608,
			"target":34962
		},
		{
			"buffer":0,
			"byteLength":288,
			"byteOffset":1896,
			"target":34962
		},
		{
			"buffer":0,
			"byteLength":192,
			"byteOffset":2184,
			"target":34962
		},
		{
			"buffer":0,
			"byteLength":72,
			"byteOffset":2376,
			"target":34963
		},
		{
			"buffer":0,
			"byteLength":288,
			"byteOffset":2448,
			"target":34962
		},
		{
			"buffer":0,
			"byteLength":288,
			"byteOffset":2736,
			"target":34962
		},
		{
			"buffer":0,
			"byteLength":192,
			"byteOffset":3024,
			"target":34962
		},
		{
			"buffer":0,
			"byteLength":288,
			"byteOffset":3216,
			"target":34962
		},
		{
			"buffer":0,
			"byteLength":288,
			"byteOffset":3504,
			"target":34962
		},
		{
			"buffer":0,
			"byteLength":192,
			"byteOffset":3792,
			"target":34962
		}
	],
	"buffers":[
		{
			"byteLength":3984,
			"uri":"data:application/octet-stream;base64,"
		}
	]
}
