{
	"asset":{
		"generator":"Khronos glTF Blender I/O v3.6.27",
		"version":"2.0"
	},
	"scene":0,
	"scenes":[
		{
			"name":"Scene",
			"nodes":[
				0,
				1,
				2,
				3,
				4,
				5,
				6,
				7,
				8,
				9,
				10,
				11,
				12,
				13,
				14,
				15,
				16,
				17,
				18,
				19,
				20,
				21,
				22,
				23,
				24,
				25,
				26,
				27,
				28,
				29,
				30,
				31,
				32,
				33,
				34,
				35,
				36,
				37,
				38,
				39,
				40,
				41,
				42,
				43,
				44,
				45,
				46,
				47
			]
		}
	],
	"nodes":[
		{
			"extras":{
				"type":"sb"
			},
			"mesh":0,
			"name":"Cube",
			"translation":[
				0,
				-1,
				0
			]
		},
		{
			"extras":{
				"type":"player_start"
			},
			"name":"Empty",
			"translation":[
				0,
				5,
				0
			]
		},
		{
			"extras":{
				"type":"sb"
			},
			"mesh":1,
			"name":"Cylinder",
			"translation":[
				-29.213838577270508,
				0,
				23.466384887695312
			]
		},
		{
			"extras":{
				"type":"sb"
			},
			"mesh":1,
			"name":"Cylinder.001",
			"translation":[
				-34,
				0,
				-10
			]
		},
		{
			"extras":{
				"type":"sb"
			},
			"mesh":2,
			"name":"Cube.001",
			"rotation":[
				0,
				0.10123515129089355,
				0,
				0.9948625564575195
			],
			"translation":[
				-31.940916061401367,
				28,
				5.998804092407227
			]
		},
		{
			"extras":{
				"type":"sb"
			},
			"mesh":3,
			"name":"Cube.002",
			"translation":[
				34,
				-0.8058980107307434,
				23.087787628173828
			]
		},
		{
			"extras":{
				"type":"rb"
			},
			"mesh":4,
			"name":"Cube.005",
			"translation":[
				4,
				1,
				-39
			]
		},
		{
			"extras":{
				"sound_source":"music_test_2",
				"type":"music"
			},
			"mesh":5,
			"name":"Sphere.002",
			"translation":[
				-26,
				36,
				23
			]
		},
		{
			"extras":{
				"sound_source":"music_test_3",
				"type":"music"
			},
			"mesh":5,
			"name":"Sphere.003",
			"translation":[
				-32,
				36,
				-7
			]
		},
		{
			"extras":{
				"sound_source":"music_test_1",
				"type":"music"
			},
			"mesh":5,
			"name":"Sphere.004",
			"translation":[
				43.221771240234375,
				6.014965057373047,
				23.516437530517578
			]
		},
		{
			"extras":{
				"sound_source":"music_test_2",
				"type":"music"
			},
			"mesh":5,
			"name":"Sphere.005",
			"translation":[
				-9.753989219665527,
				6.014965057373047,
				-41.48356246948242
			]
		},
		{
			"extras":{
				"type":"rb"
			},
			"mesh":4,
			"name":"Cube.003",
			"translation":[
				4,
				1,
				-35
			]
		},
		{
			"extras":{
				"type":"rb"
			},
			"mesh":4,
			"name":"Cube.004",
			"translation":[
				0,
				1,
				-39
			]
		},
		{
			"extras":{
				"type":"rb"
			},
			"mesh":4,
			"name":"Cube.006",
			"translation":[
				0,
				1,
				-35
			]
		},
		{
			"extras":{
				"type":"rb"
			},
			"mesh":4,
			"name":"Cube.007",
			"translation":[
				4,
				3,
				-39
			]
		},
		{
			"extras":{
				"type":"rb"
			},
			"mesh":4,
			"name":"Cube.008",
			"translation":[
				4,
				3,
				-35
			]
		},
		{
			"extras":{
				"type":"rb"
			},
			"mesh":4,
			"name":"Cube.009",
			"translation":[
				0,
				3,
				-39
			]
		},
		{
			"extras":{
				"type":"rb"
			},
			"mesh":4,
			"name":"Cube.010",
			"translation":[
				0,
				3,
				-35
			]
		},
		{
			"extras":{
				"type":"rb"
			},
			"mesh":4,
			"name":"Cube.011",
			"translation":[
				4,
				5,
				-39
			]
		},
		{
			"extras":{
				"type":"rb"
			},
			"mesh":4,
			"name":"Cube.012",
			"translation":[
				4,
				5,
				-35
			]
		},
		{
			"extras":{
				"type":"rb"
			},
			"mesh":4,
			"name":"Cube.013",
			"translation":[
				0,
				5,
				-39
			]
		},
		{
			"extras":{
				"type":"rb"
			},
			"mesh":4,
			"name":"Cube.014",
			"translation":[
				0,
				5,
				-35
			]
		},
		{
			"extras":{
				"type":"rb"
			},
			"mesh":4,
			"name":"Cube.015",
			"translation":[
				4,
				7,
				-39
			]
		},
		{
			"extras":{
				"type":"rb"
			},
			"mesh":4,
			"name":"Cube.016",
			"translation":[
				4,
				7,
				-35
			]
		},
		{
			"extras":{
				"type":"rb"
			},
			"mesh":4,
			"name":"Cube.017",
			"translation":[
				0,
				7,
				-39
			]
		},
		{
			"extras":{
				"type":"rb"
			},
			"mesh":4,
			"name":"Cube.018",
			"translation":[
				0,
				7,
				-35
			]
		},
		{
			"extras":{
				"type":"rb"
			},
			"mesh":4,
			"name":"Cube.019",
			"translation":[
				4,
				9,
				-39
			]
		},
		{
			"extras":{
				"type":"rb"
			},
			"mesh":4,
			"name":"Cube.020",
			"translation":[
				4,
				9,
				-35
			]
		},
		{
			"extras":{
				"type":"rb"
			},
			"mesh":4,
			"name":"Cube.021",
			"translation":[
				0,
				9,
				-39
			]
		},
		{
			"extras":{
				"type":"rb"
			},
			"mesh":4,
			"name":"Cube.022",
			"translation":[
				0,
				9,
				-35
			]
		},
		{
			"extras":{
				"type":"rb"
			},
			"mesh":4,
			"name":"Cube.023",
			"translation":[
				4,
				11,
				-39
			]
		},
		{
			"extras":{
				"type":"rb"
			},
			"mesh":4,
			"name":"Cube.024",
			"translation":[
				4,
				11,
				-35
			]
		},
		{
			"extras":{
				"type":"rb"
			},
			"mesh":4,
			"name":"Cube.025",
			"translation":[
				0,
				11,
				-39
			]
		},
		{
			"extras":{
				"type":"rb"
			},
			"mesh":4,
			"name":"Cube.026",
			"translation":[
				0,
				11,
				-35
			]
		},
		{
			"extras":{
				"type":"rb"
			},
			"mesh":4,
			"name":"Cube.027",
			"translation":[
				4,
				13,
				-39
			]
		},
		{
			"extras":{
				"type":"rb"
			},
			"mesh":4,
			"name":"Cube.028",
			"translation":[
				4,
				13,
				-35
			]
		},
		{
			"extras":{
				"type":"rb"
			},
			"mesh":4,
			"name":"Cube.029",
			"translation":[
				0,
				13,
				-39
			]
		},
		{
			"extras":{
				"type":"rb"
			},
			"mesh":4,
			"name":"Cube.030",
			"translation":[
				0,
				13,
				-35
			]
		},
		{
			"extras":{
				"type":"rb"
			},
			"mesh":6,
			"name":"Cone.002",
			"rotation":[
				0,
				0,
				1,
				1.6292068494294654e-07
			],
			"scale":[
				5,
				5,
				5
			],
			"translation":[
				2,
				-35,
				-36
			]
		},
		{
			"extras":{
				"type":"rb"
			},
			"mesh":7,
			"name":"Sphere.001",
			"translation":[
				0,
				35,
				23
			]
		},
		{
			"extras":{
				"type":"rb"
			},
			"mesh":7,
			"name":"Sphere.006",
			"translation":[
				0,
				35,
				26
			]
		},
		{
			"extras":{
				"type":"rb"
			},
			"mesh":7,
			"name":"Sphere.007",
			"translation":[
				0,
				38,
				25
			]
		},
		{
			"extras":{
				"type":"rb"
			},
			"mesh":7,
			"name":"Sphere.008",
			"translation":[
				0,
				38,
				28
			]
		},
		{
			"extras":{
				"type":"rb"
			},
			"mesh":7,
			"name":"Sphere.009",
			"translation":[
				0,
				38,
				21
			]
		},
		{
			"extras":{
				"type":"rb"
			},
			"mesh":7,
			"name":"Sphere.010",
			"translation":[
				0,
				41,
				23
			]
		},
		{
			"extras":{
				"type":"rb"
			},
			"mesh":7,
			"name":"Sphere.011",
			"translation":[
				0,
				41,
				26
			]
		},
		{
			"extras":{
				"type":"rb"
			},
			"mesh":7,
			"name":"Sphere.012",
			"rotation":[
				0,
				0.7071068286895752,
				0,
				0.7071068286895752
			],
			"translation":[
				3.5,
				38,
				24.5
			]
		},
		{
			"extras":{
				"type":"rb"
			},
			"mesh":7,
			"name":"Sphere.013",
			"rotation":[
				0,
				0.7071068286895752,
				0,
				0.7071068286895752
			],
			"translation":[
				-3.5,
				38,
				24.5
			]
		}
	],
	"materials":[
		{
			"doubleSided":true,
			"name":"Material",
			"pbrMetallicRoughness":{
				"baseColorFactor":[
					0.800000011920929,
					0.800000011920929,
					0.800000011920929,
					1
				],
				"metallicFactor":0,
				"roughnessFactor":0.5
			}
		}
	],
	"meshes":[
		{
			"name":"Cube",
			"primitives":[
				{
					"attributes":{
						"POSITION":0,
						"NORMAL":1,
						"TEXCOORD_0":2
					},
					"indices":3,
					"material":0
				}
			]
		},
		{
			"name":"Cylinder",
			"primitives":[
				{
					"attributes":{
						"POSITION":4,
						"NORMAL":5,
						"TEXCOORD_0":6
					},
					"indices":7
				}
			]
		},
		{
			"name":"Cube.001",
			"primitives":[
				{
					"attributes":{
						"POSITION":8,
						"NORMAL":9,
						"TEXCOORD_0":10
					},
					"indices":11
				}
			]
		},
		{
			"name":"Cube.002",
			"primitives":[
				{
					"attributes":{
						"POSITION":12,
						"NORMAL":13,
						"TEXCOORD_0":14
					},
					"indices":15
				}
			]
		},
		{
			"name":"Cube.003",
			"primitives":[
				{
					"attributes":{
						"POSITION":16,
						"NORMAL":17,
						"TEXCOORD_0":18
					},
					"indices":15
				}
			]
		},
		{
			"name":"sound_fount",
			"primitives":[
				{
					"attributes":{
						"POSITION":19,
						"NORMAL":20,
						"TEXCOORD_0":21
					},
					"indices":22
				}
			]
		},
		{
			"name":"Cone.004",
			"primitives":[
				{
					"attributes":{
						"POSITION":23,
						"NORMAL":24,
						"TEXCOORD_0":25
					},
					"indices":26
				}
			]
		},
		{
			"name":"Sphere.001",
			"primitives":[
				{
					"attributes":{
						"POSITION":27,
						"NORMAL":28,
						"TEXCOORD_0":29
					},
					"indices":30
				}
			]
		}
	],
	"accessors":[
		{
			"bufferView":0,
			"componentType":5126,
			"count":24,
			"max":[
				100,
				1,
				100
			],
			"min":[
				-100,
				-1,
				-100
			],
			"type":"VEC3"
		},
		{
			"bufferView":1,
			"componentType":5126,
			"count":24,
			"type":"VEC3"
		},
		{
			"bufferView":2,
			"componentType":5126,
			"count":24,
			"type":"VEC2"
		},
		{
			"bufferView":3,
			"componentType":5123,
			"count":36,
			"type":"SCALAR"
		},
		{
			"bufferView":4,
			"componentType":5126,
			"count":48,
			"max":[
				4.899985313415527,
				27,
				4.900000095367432
			],
			"min":[
				-4.900014877319336,
				-1,
				-4.900000095367432
			],
			"type":"VEC3"
		},
		{
			"bufferView":5,
			"componentType":5126,
			"count":48,
			"type":"VEC3"
		},
		{
			"bufferView":6,
			"componentType":5126,
			"count":48,
			"type":"VEC2"
		},
		{
			"bufferView":7,
			"componentType":5123,
			"count":84,
			"type":"SCALAR"
		},
		{
			"bufferView":8,
			"componentType":5126,
			"count":24,
			"max":[
				10.420845985412598,
				1.5082502365112305,
				25.299461364746094
			],
			"min":[
				-8.366033554077148,
				-1.5082502365112305,
				-24.87689971923828
			],
			"type":"VEC3"
		},
		{
			"bufferView":9,
			"componentType":5126,
			"count":24,
			"type":"VEC3"
		},
		{
			"bufferView":10,
			"componentType":5126,
			"count":24,
			"type":"VEC2"
		},
		{
			"bufferView":11,
			"componentType":5123,
			"count":36,
			"type":"SCALAR"
		},
		{
			"bufferView":12,
			"componentType":5126,
			"count":24,
			"max":[
				1,
				30,
				4.909388542175293
			],
			"min":[
				-52,
				-2,
				-4.909388542175293
			],
			"type":"VEC3"
		},
		{
			"bufferView":13,
			"componentType":5126,
			"count":24,
			"type":"VEC3"
		},
		{
			"bufferView":14,
			"componentType":5126,
			"count":24,
			"type":"VEC2"
		},
		{
			"bufferView":15,
			"componentType":5123,
			"count":36,
			"type":"SCALAR"
		},
		{
			"bufferView":16,
			"componentType":5126,
			"count":24,
			"max":[
				1,
				1,
				1
			],
			"min":[
				-1,
				-1,
				-1
			],
			"type":"VEC3"
		},
		{
			"bufferView":17,
			"componentType":5126,
			"count":24,
			"type":"VEC3"
		},
		{
			"bufferView":18,
			"componentType":5126,
			"count":24,
			"type":"VEC2"
		},
		{
			"bufferView":19,
			"componentType":5126,
			"count":2470,
			"max":[
				1.7249999046325684,
				3.795010566711426,
				3.7950000762939453
			],
			"min":[
				-1.7249999046325684,
				-3.7949886322021484,
				-3.7950000762939453
			],
			"type":"VEC3"
		},
		{
			"bufferView":20,
			"componentType":5126,
			"count":2470,
			"type":"VEC3"
		},
		{
			"bufferView":21,
			"componentType":5126,
			"count":2470,
			"type":"VEC2"
		},
		{
			"bufferView":22,
			"componentType":5123,
			"count":13248,
			"type":"SCALAR"
		},
		{
			"bufferView":23,
			"componentType":5126,
			"count":4,
			"max":[
				0.20000001788139343,
				1.4901161193847656e-07,
				0.19999980926513672
			],
			"min":[
				-0.19999998807907104,
				1.4901161193847656e-07,
				-0.19999980926513672
			],
			"type":"VEC3"
		},
		{
			"bufferView":24,
			"componentType":5126,
			"count":4,
			"type":"VEC3"
		},
		{
			"bufferView":25,
			"componentType":5126,
			"count":4,
			"type":"VEC2"
		},
		{
			"bufferView":26,
			"componentType":5123,
			"count":6,
			"type":"SCALAR"
		},
		{
			"bufferView":27,
			"componentType":5126,
			"count":559,
			"max":[
				0.9999997019767761,
				1,
				0.9999993443489075
			],
			"min":[
				-0.9999990463256836,
				-1,
				-1
			],
			"type":"VEC3"
		},
		{
			"bufferView":28,
			"componentType":5126,
			"count":559,
			"type":"VEC3"
		},
		{
			"bufferView":29,
			"componentType":5126,
			"count":559,
			"type":"VEC2"
		},
		{
			"bufferView":30,
			"componentType":5123,
			"count":2880,
			"type":"SCALAR"
		}
	],
	"bufferViews":[
		{
			"buffer":0,
			"byteLength":288,
			"byteOffset":0,
			"target":34962
		},
		{
			"buffer":0,
			"byteLength":288,
			"byteOffset":288,
			"target":34962
		},
		{
			"buffer":0,
			"byteLength":192,
			"byteOffset":576,
			"target":34962
		},
		{
			"buffer":0,
			"byteLength":72,
			"byteOffset":768,
			"target":34963
		},
		{
			"buffer":0,
			"byteLength":576,
			"byteOffset":840,
			"target":34962
		},
		{
			"buffer":0,
			"byteLength":576,
			"byteOffset":1416,
			"target":34962
		},
		{
			"buffer":0,
			"byteLength":384,
			"byteOffset":1992,
			"target":34962
		},
		{
			"buffer":0,
			"byteLength":168,
			"byteOffset":2376,
			"target":34963
		},
		{
			"buffer":0,
			"byteLength":288,
			"byteOffset":2544,
			"target":34962
		},
		{
			"buffer":0,
			"byteLength":288,
			"byteOffset":2832,
			"target":34962
		},
		{
			"buffer":0,
			"byteLength":192,
			"byteOffset":3120,
			"target":34962
		},
		{
			"buffer":0,
			"byteLength":72,
			"byteOffset":3312,
			"target":34963
		},
		{
			"buffer":0,
			"byteLength":288,
			"byteOffset":3384,
			"target":34962
		},
		{
			"buffer":0,
			"byteLength":288,
			"byteOffset":3672,
			"target":34962
		},
		{
			"buffer":0,
			"byteLength":192,
			"byteOffset":3960,
			"target":34962
		},
		{
			"buffer":0,
			"byteLength":72,
			"byteOffset":4152,
			"target":34963
		},
		{
			"buffer":0,
			"byteLength":288,
			"byteOffset":4224,
			"target":34962
		},
		{
			"buffer":0,
			"byteLength":288,
			"byteOffset":4512,
			"target":34962
		},
		{
			"buffer":0,
			"byteLength":192,
			"byteOffset":4800,
			"target":34962
		},
		{
			"buffer":0,
			"byteLength":29640,
			"byteOffset":4992,
			"target":34962
		},
		{
			"buffer":0,
			"byteLength":29640,
			"byteOffset":34632,
			"target":34962
		},
		{
			"buffer":0,
			"byteLength":19760,
			"byteOffset":64272,
			"target":34962
		},
		{
			"buffer":0,
			"byteLength":26496,
			"byteOffset":84032,
			"target":34963
		},
		{
			"buffer":0,
			"byteLength":48,
			"byteOffset":110528,
			"target":34962
		},
		{
			"buffer":0,
			"byteLength":48,
			"byteOffset":110576,
			"target":34962
		},
		{
			"buffer":0,
			"byteLength":32,
			"byteOffset":110624,
			"target":34962
		},
		{
			"buffer":0,
			"byteLength":12,
			"byteOffset":110656,
			"target":34963
		},
		{
			"buffer":0,
			"byteLength":6708,
			"byteOffset":110668,
			"target":34962
		},
		{
			"buffer":0,
			"byteLength":6708,
			"byteOffset":117376,
			"target":34962
		},
		{
			"buffer":0,
			"byteLength":4472,
			"byteOffset":124084,
			"target":34962
		},
		{
			"buffer":0,
			"byteLength":5760,
			"byteOffset":128556,
			"target":34963
		}
	],
	"buffers":[
		{
			"byteLength":134316,
			"uri":"data:application/octet-stream;base64,"
		}
	]
}
