{
	"asset":{
		"generator":"Khronos glTF Blender I/O v3.5.30",
		"version":"2.0"
	},
	"scene":0,
	"scenes":[
		{
			"name":"Scene",
			"nodes":[
				6,
				7,
				8
			]
		}
	],
	"nodes":[
		{
			"mesh":0,
			"name":"aim"
		},
		{
			"name":"bullet_spaw",
			"translation":[
				2.8780128955841064,
				0.298466295003891,
				0
			]
		},
		{
			"children":[
				1
			],
			"mesh":1,
			"name":"barrel"
		},
		{
			"name":"bullet_spaw_2",
			"translation":[
				1.5662000179290771,
				0.31729376316070557,
				0
			]
		},
		{
			"mesh":2,
			"name":"butt"
		},
		{
			"mesh":3,
			"name":"reloader"
		},
		{
			"children":[
				0,
				2,
				3,
				4,
				5
			],
			"mesh":4,
			"name":"pistol"
		},
		{
			"mesh":5,
			"name":"pistol_fire",
			"translation":[
				0,
				2,
				0
			]
		},
		{
			"mesh":6,
			"name":"bullet",
			"translation":[
				0,
				4,
				0
			]
		}
	],
	"materials":[
		{
			"doubleSided":true,
			"name":"Material",
			"pbrMetallicRoughness":{
				"baseColorFactor":[
					0.800000011920929,
					0.800000011920929,
					0.800000011920929,
					1
				],
				"metallicFactor":0,
				"roughnessFactor":0.5
			}
		}
	],
	"meshes":[
		{
			"name":"aim",
			"primitives":[
				{
					"attributes":{
						"POSITION":0,
						"TEXCOORD_0":1,
						"NORMAL":2,
						"TANGENT":3
					},
					"indices":4
				}
			]
		},
		{
			"name":"barrel",
			"primitives":[
				{
					"attributes":{
						"POSITION":5,
						"TEXCOORD_0":6,
						"NORMAL":7,
						"TANGENT":8
					},
					"indices":9
				}
			]
		},
		{
			"name":"butt",
			"primitives":[
				{
					"attributes":{
						"POSITION":10,
						"TEXCOORD_0":11,
						"NORMAL":12,
						"TANGENT":13
					},
					"indices":14
				}
			]
		},
		{
			"name":"reloader",
			"primitives":[
				{
					"attributes":{
						"POSITION":15,
						"TEXCOORD_0":16,
						"NORMAL":17,
						"TANGENT":18
					},
					"indices":19,
					"material":0
				}
			]
		},
		{
			"name":"pistol",
			"primitives":[
				{
					"attributes":{
						"POSITION":20,
						"TEXCOORD_0":21,
						"NORMAL":22,
						"TANGENT":23
					},
					"indices":24,
					"material":0
				}
			]
		},
		{
			"name":"pistol_fire",
			"primitives":[
				{
					"attributes":{
						"POSITION":25,
						"TEXCOORD_0":26,
						"NORMAL":27,
						"TANGENT":28
					},
					"indices":29
				}
			]
		},
		{
			"name":"bullet",
			"primitives":[
				{
					"attributes":{
						"POSITION":30,
						"TEXCOORD_0":31,
						"NORMAL":32,
						"TANGENT":33
					},
					"indices":34
				}
			]
		}
	],
	"accessors":[
		{
			"bufferView":0,
			"componentType":5126,
			"count":26,
			"max":[
				0.6553869247436523,
				0.6189568042755127,
				0.089122474193573
			],
			"min":[
				-0.029613971710205078,
				0.3962736129760742,
				-0.08912248909473419
			],
			"type":"VEC3"
		},
		{
			"bufferView":1,
			"componentType":5126,
			"count":26,
			"type":"VEC2"
		},
		{
			"bufferView":2,
			"componentType":5126,
			"count":26,
			"type":"VEC3"
		},
		{
			"bufferView":3,
			"componentType":5126,
			"count":26,
			"type":"VEC4"
		},
		{
			"bufferView":4,
			"componentType":5123,
			"count":30,
			"type":"SCALAR"
		},
		{
			"bufferView":5,
			"componentType":5126,
			"count":116,
			"max":[
				2.7909135818481445,
				0.4187532961368561,
				0.10990576446056366
			],
			"min":[
				1.1650259494781494,
				-0.006092280149459839,
				-0.10990577936172485
			],
			"type":"VEC3"
		},
		{
			"bufferView":6,
			"componentType":5126,
			"count":116,
			"type":"VEC2"
		},
		{
			"bufferView":7,
			"componentType":5126,
			"count":116,
			"type":"VEC3"
		},
		{
			"bufferView":8,
			"componentType":5126,
			"count":116,
			"type":"VEC4"
		},
		{
			"bufferView":9,
			"componentType":5123,
			"count":174,
			"type":"SCALAR"
		},
		{
			"bufferView":10,
			"componentType":5126,
			"count":36,
			"max":[
				-0.010545134544372559,
				0.3467687964439392,
				0.10773248970508575
			],
			"min":[
				-1.2879934310913086,
				-0.11167818307876587,
				-0.10773248970508575
			],
			"type":"VEC3"
		},
		{
			"bufferView":11,
			"componentType":5126,
			"count":36,
			"type":"VEC2"
		},
		{
			"bufferView":12,
			"componentType":5126,
			"count":36,
			"type":"VEC3"
		},
		{
			"bufferView":13,
			"componentType":5126,
			"count":36,
			"type":"VEC4"
		},
		{
			"bufferView":14,
			"componentType":5123,
			"count":54,
			"type":"SCALAR"
		},
		{
			"bufferView":15,
			"componentType":5126,
			"count":56,
			"max":[
				0.04784427583217621,
				-0.1528298556804657,
				0.2752067446708679
			],
			"min":[
				-0.39629992842674255,
				-0.8255041837692261,
				-0.2752067446708679
			],
			"type":"VEC3"
		},
		{
			"bufferView":16,
			"componentType":5126,
			"count":56,
			"type":"VEC2"
		},
		{
			"bufferView":17,
			"componentType":5126,
			"count":56,
			"type":"VEC3"
		},
		{
			"bufferView":18,
			"componentType":5126,
			"count":56,
			"type":"VEC4"
		},
		{
			"bufferView":19,
			"componentType":5123,
			"count":84,
			"type":"SCALAR"
		},
		{
			"bufferView":20,
			"componentType":5126,
			"count":220,
			"max":[
				1.5216381549835205,
				0.41742873191833496,
				0.10000002384185791
			],
			"min":[
				-0.1565871238708496,
				-0.1528298556804657,
				-0.10000002384185791
			],
			"type":"VEC3"
		},
		{
			"bufferView":21,
			"componentType":5126,
			"count":220,
			"type":"VEC2"
		},
		{
			"bufferView":22,
			"componentType":5126,
			"count":220,
			"type":"VEC3"
		},
		{
			"bufferView":23,
			"componentType":5126,
			"count":220,
			"type":"VEC4"
		},
		{
			"bufferView":24,
			"componentType":5123,
			"count":372,
			"type":"SCALAR"
		},
		{
			"bufferView":25,
			"componentType":5126,
			"count":48,
			"max":[
				0.18812693655490875,
				0.1414213925600052,
				0.1414213925600052
			],
			"min":[
				-0.10000001639127731,
				-0.1414213925600052,
				-0.1414213925600052
			],
			"type":"VEC3"
		},
		{
			"bufferView":26,
			"componentType":5126,
			"count":48,
			"type":"VEC2"
		},
		{
			"bufferView":27,
			"componentType":5126,
			"count":48,
			"type":"VEC3"
		},
		{
			"bufferView":28,
			"componentType":5126,
			"count":48,
			"type":"VEC4"
		},
		{
			"bufferView":29,
			"componentType":5123,
			"count":54,
			"type":"SCALAR"
		},
		{
			"bufferView":30,
			"componentType":5126,
			"count":24,
			"max":[
				0.33858442306518555,
				0.2673531174659729,
				0.2673531174659729
			],
			"min":[
				-0.3261108100414276,
				-0.2673531174659729,
				-0.2673531174659729
			],
			"type":"VEC3"
		},
		{
			"bufferView":31,
			"componentType":5126,
			"count":24,
			"type":"VEC2"
		},
		{
			"bufferView":32,
			"componentType":5126,
			"count":24,
			"type":"VEC3"
		},
		{
			"bufferView":33,
			"componentType":5126,
			"count":24,
			"type":"VEC4"
		},
		{
			"bufferView":34,
			"componentType":5123,
			"count":24,
			"type":"SCALAR"
		}
	],
	"bufferViews":[
		{
			"buffer":0,
			"byteLength":312,
			"byteOffset":0,
			"target":34962
		},
		{
			"buffer":0,
			"byteLength":208,
			"byteOffset":312,
			"target":34962
		},
		{
			"buffer":0,
			"byteLength":312,
			"byteOffset":520,
			"target":34962
		},
		{
			"buffer":0,
			"byteLength":416,
			"byteOffset":832,
			"target":34962
		},
		{
			"buffer":0,
			"byteLength":60,
			"byteOffset":1248,
			"target":34963
		},
		{
			"buffer":0,
			"byteLength":1392,
			"byteOffset":1308,
			"target":34962
		},
		{
			"buffer":0,
			"byteLength":928,
			"byteOffset":2700,
			"target":34962
		},
		{
			"buffer":0,
			"byteLength":1392,
			"byteOffset":3628,
			"target":34962
		},
		{
			"buffer":0,
			"byteLength":1856,
			"byteOffset":5020,
			"target":34962
		},
		{
			"buffer":0,
			"byteLength":348,
			"byteOffset":6876,
			"target":34963
		},
		{
			"buffer":0,
			"byteLength":432,
			"byteOffset":7224,
			"target":34962
		},
		{
			"buffer":0,
			"byteLength":288,
			"byteOffset":7656,
			"target":34962
		},
		{
			"buffer":0,
			"byteLength":432,
			"byteOffset":7944,
			"target":34962
		},
		{
			"buffer":0,
			"byteLength":576,
			"byteOffset":8376,
			"target":34962
		},
		{
			"buffer":0,
			"byteLength":108,
			"byteOffset":8952,
			"target":34963
		},
		{
			"buffer":0,
			"byteLength":672,
			"byteOffset":9060,
			"target":34962
		},
		{
			"buffer":0,
			"byteLength":448,
			"byteOffset":9732,
			"target":34962
		},
		{
			"buffer":0,
			"byteLength":672,
			"byteOffset":10180,
			"target":34962
		},
		{
			"buffer":0,
			"byteLength":896,
			"byteOffset":10852,
			"target":34962
		},
		{
			"buffer":0,
			"byteLength":168,
			"byteOffset":11748,
			"target":34963
		},
		{
			"buffer":0,
			"byteLength":2640,
			"byteOffset":11916,
			"target":34962
		},
		{
			"buffer":0,
			"byteLength":1760,
			"byteOffset":14556,
			"target":34962
		},
		{
			"buffer":0,
			"byteLength":2640,
			"byteOffset":16316,
			"target":34962
		},
		{
			"buffer":0,
			"byteLength":3520,
			"byteOffset":18956,
			"target":34962
		},
		{
			"buffer":0,
			"byteLength":744,
			"byteOffset":22476,
			"target":34963
		},
		{
			"buffer":0,
			"byteLength":576,
			"byteOffset":23220,
			"target":34962
		},
		{
			"buffer":0,
			"byteLength":384,
			"byteOffset":23796,
			"target":34962
		},
		{
			"buffer":0,
			"byteLength":576,
			"byteOffset":24180,
			"target":34962
		},
		{
			"buffer":0,
			"byteLength":768,
			"byteOffset":24756,
			"target":34962
		},
		{
			"buffer":0,
			"byteLength":108,
			"byteOffset":25524,
			"target":34963
		},
		{
			"buffer":0,
			"byteLength":288,
			"byteOffset":25632,
			"target":34962
		},
		{
			"buffer":0,
			"byteLength":192,
			"byteOffset":25920,
			"target":34962
		},
		{
			"buffer":0,
			"byteLength":288,
			"byteOffset":26112,
			"target":34962
		},
		{
			"buffer":0,
			"byteLength":384,
			"byteOffset":26400,
			"target":34962
		},
		{
			"buffer":0,
			"byteLength":48,
			"byteOffset":26784,
			"target":34963
		}
	],
	"buffers":[
		{
			"byteLength":26832,
			"uri":"data:application/octet-stream;base64,"
		}
	]
}
