<?xml version="1.0" encoding="UTF-8" standalone="no"?>
<!-- Created with Inkscape (http://www.inkscape.org/) -->

<svg
   width="230.5737mm"
   height="210.88837mm"
   viewBox="0 0 230.5737 210.88837"
   version="1.1"
   id="svg1"
   inkscape:version="1.3 (0e150ed6c4, 2023-07-21)"
   sodipodi:docname="scifi_wepon.svg"
   inkscape:export-filename="scifi_wepon.png"
   inkscape:export-xdpi="96"
   inkscape:export-ydpi="96"
   xmlns:inkscape="http://www.inkscape.org/namespaces/inkscape"
   xmlns:sodipodi="http://sodipodi.sourceforge.net/DTD/sodipodi-0.dtd"
   xmlns="http://www.w3.org/2000/svg"
   xmlns:svg="http://www.w3.org/2000/svg">
  <sodipodi:namedview
     id="namedview1"
     pagecolor="#ffffff"
     bordercolor="#000000"
     borderopacity="0.25"
     inkscape:showpageshadow="2"
     inkscape:pageopacity="0.0"
     inkscape:pagecheckerboard="0"
     inkscape:deskcolor="#d1d1d1"
     inkscape:document-units="mm"
     inkscape:zoom="1.4093294"
     inkscape:cx="361.87424"
     inkscape:cy="132.33244"
     inkscape:window-width="2560"
     inkscape:window-height="995"
     inkscape:window-x="0"
     inkscape:window-y="0"
     inkscape:window-maximized="1"
     inkscape:current-layer="layer1" />
  <defs
     id="defs1">
    <clipPath
       clipPathUnits="userSpaceOnUse"
       id="clipPath24">
      <rect
         style="fill:none;stroke:#000000;stroke-width:0.999999;stroke-linecap:butt;stroke-linejoin:bevel;paint-order:stroke markers fill;stop-color:#000000"
         id="rect24"
         width="44.999748"
         height="77.937294"
         x="251.53429"
         y="222.73541" />
    </clipPath>
    <linearGradient
       id="swatch8"
       inkscape:swatch="solid">
      <stop
         style="stop-color:#000000;stop-opacity:1;"
         offset="0"
         id="stop8" />
    </linearGradient>
    <linearGradient
       id="swatch7"
       inkscape:swatch="solid">
      <stop
         style="stop-color:#000000;stop-opacity:1;"
         offset="0"
         id="stop7" />
    </linearGradient>
  </defs>
  <g
     inkscape:groupmode="layer"
     id="layer2"
     inkscape:label="Layer 2">
    <rect
       style="fill:#ffffff;fill-opacity:1;stroke:#ffffff;stroke-width:7.84188;stroke-linecap:square;stroke-linejoin:miter;stroke-miterlimit:1;stroke-dasharray:none;stroke-opacity:1;paint-order:normal"
       id="rect2"
       width="221.84094"
       height="203.3837"
       x="3.9401863"
       y="3.9249794"
       ry="0" />
  </g>
  <g
     inkscape:label="Layer 1"
     inkscape:groupmode="layer"
     id="layer1"
     transform="translate(0,-0.43126581)">
    <path
       style="fill:none;stroke:#000000;stroke-width:0.830804;stroke-linecap:square;stroke-linejoin:miter;stroke-miterlimit:1;paint-order:normal"
       d="M 8.2831568,6.9699784 H 54.065578 l 8.494807,8.7512686 h 21.471936 l 8.07698,-8.6943106 H 117.8442 V 41.072459 l 13.83898,45.53107 v 6.9017 h -29.60912 v -8.33293 L 90.912451,42.258991 H 8.3327298 Z"
       id="path2"
       sodipodi:nodetypes="cccccccccccccc" />
    <path
       style="fill:none;stroke:#000000;stroke-width:0.830804;stroke-linecap:square;stroke-linejoin:miter;stroke-miterlimit:1;paint-order:normal"
       d="M 8.3590348,34.27807 H 117.68095"
       id="path3" />
    <path
       style="fill:none;stroke:#000000;stroke-width:0.830804;stroke-linecap:square;stroke-linejoin:miter;stroke-miterlimit:1;paint-order:normal"
       d="M 55.710837,8.6147524 H 90.688871"
       id="path4" />
    <path
       style="fill:none;stroke:#000000;stroke-width:0.830804;stroke-linecap:square;stroke-linejoin:miter;stroke-miterlimit:1;paint-order:normal"
       d="m 118.02861,9.1253924 h 4.58221 V 31.843195 h -4.62058"
       id="path5" />
    <path
       style="fill:none;stroke:#000000;stroke-width:0.830804;stroke-linecap:square;stroke-linejoin:miter;stroke-miterlimit:1;paint-order:normal"
       d="M 8.3170538,31.937662 H 4.7467978 V 9.2927294 h 3.526318"
       id="path6" />
    <path
       style="fill:none;fill-opacity:1;stroke:#000000;stroke-width:1.201;stroke-linecap:square;stroke-linejoin:miter;stroke-miterlimit:1;stroke-dasharray:none;paint-order:normal"
       d="M 94.582242,59.604188 H 71.759599 L 66.044647,55.745007 60.860484,42.680012"
       id="path7" />
    <path
       style="fill:none;fill-opacity:1;stroke:#000000;stroke-width:1.37295;stroke-linecap:square;stroke-linejoin:miter;stroke-miterlimit:1;stroke-dasharray:none;paint-order:normal"
       d="M 95.339957,62.660887 H 69.818739 L 63.428044,58.150917 57.6309,42.882726"
       id="path7-7" />
    <path
       style="fill:none;fill-opacity:1;stroke:#000000;stroke-width:1.201;stroke-linecap:square;stroke-linejoin:miter;stroke-miterlimit:1;stroke-dasharray:none;paint-order:normal"
       d="m 94.172671,56.198052 h -3.978328 l -8.08483,-14.00334"
       id="path14" />
    <path
       style="fill:none;stroke:#000000;stroke-width:0.3932;stroke-linecap:square;stroke-linejoin:miter;stroke-miterlimit:1;paint-order:normal"
       d="m 89.736369,119.87432 v 3.43616 l 6.190299,22.79986 v 3.45605 H 82.682251 v -4.17274 L 77.689569,123.90464 H 40.75096 l -0.006,-3.97333 z"
       id="path2-5"
       sodipodi:nodetypes="cccccccccc" />
    <path
       style="fill:none;stroke:#000000;stroke-width:0.3932;stroke-linecap:square;stroke-linejoin:miter;stroke-miterlimit:1;paint-order:normal"
       d="m 75.543816,106.05542 h 20.478868 l 3.7998,4.38224 h 9.604576 l 3.61291,-4.35371 h 11.51143 v 13.69043 l -48.991092,0.0419 z"
       id="path2-5-3"
       sodipodi:nodetypes="ccccccccc" />
    <path
       style="fill:none;fill-opacity:1;stroke:#000000;stroke-width:0.568406;stroke-linecap:square;stroke-linejoin:miter;stroke-miterlimit:1;stroke-dasharray:none;paint-order:normal"
       d="M 79.331097,132.59032 H 69.122336 l -2.556345,-1.9325 -2.318923,-6.54235"
       id="path7-9" />
    <path
       style="fill:none;fill-opacity:1;stroke:#000000;stroke-width:0.649786;stroke-linecap:square;stroke-linejoin:miter;stroke-miterlimit:1;stroke-dasharray:none;paint-order:normal"
       d="M 79.670031,134.12097 H 68.254173 l -2.858615,-2.25838 -2.59311,-7.64561"
       id="path7-7-1" />
    <path
       style="fill:none;fill-opacity:1;stroke:#000000;stroke-width:0.568406;stroke-linecap:square;stroke-linejoin:miter;stroke-miterlimit:1;stroke-dasharray:none;paint-order:normal"
       d="m 79.147892,130.88468 h -1.77954 l -3.616413,-7.01222"
       id="path14-2" />
    <rect
       style="fill:none;stroke:#000000;stroke-width:0.473277;stroke-linecap:round;stroke-miterlimit:1"
       id="rect1"
       width="54.784908"
       height="11.096839"
       x="8.8997555"
       y="107.70561" />
    <path
       style="fill:none;stroke:#000000;stroke-width:0.473277;stroke-linecap:round;stroke-miterlimit:1"
       d="m 42.044974,119.90156 0.852843,-0.95474 h 32.475146"
       id="path1" />
    <path
       style="fill:none;stroke:#000000;stroke-width:0.473277;stroke-linecap:round;stroke-miterlimit:1"
       d="M 31.412993,122.23072 H 11.828714 l 3.075296,1.98767"
       id="path8" />
    <path
       style="fill:none;stroke:#000000;stroke-width:0.473277;stroke-linecap:round;stroke-miterlimit:1"
       d="m 103.69324,122.12773 h 18.04021 l -1.44244,2.79687"
       id="path9" />
    <path
       style="fill:none;stroke:#000000;stroke-width:0.3932;stroke-linecap:square;stroke-linejoin:miter;stroke-miterlimit:1;paint-order:normal"
       d="m 205.66783,141.36635 v 3.43616 l 6.1903,22.79986 v 3.45605 h -13.24442 v -4.17274 l -4.99268,-21.48901 h -36.93861 l -0.006,-3.97333 z"
       id="path2-5-5"
       sodipodi:nodetypes="cccccccccc" />
    <path
       style="fill:none;stroke:#000000;stroke-width:0.3932;stroke-linecap:square;stroke-linejoin:miter;stroke-miterlimit:1;paint-order:normal"
       d="m 156.83965,127.54745 h 20.47886 l 3.7998,4.38224 h 9.60458 l 3.61291,-4.35371 h 11.51143 v 13.69043 l -48.99109,0.0419 z"
       id="path2-5-3-3"
       sodipodi:nodetypes="ccccccccc" />
    <path
       style="fill:none;fill-opacity:1;stroke:#000000;stroke-width:0.568406;stroke-linecap:square;stroke-linejoin:miter;stroke-miterlimit:1;stroke-dasharray:none;paint-order:normal"
       d="M 195.26256,154.08235 H 185.0538 l -2.55635,-1.9325 -2.31892,-6.54235"
       id="path7-9-5" />
    <path
       style="fill:none;fill-opacity:1;stroke:#000000;stroke-width:0.649786;stroke-linecap:square;stroke-linejoin:miter;stroke-miterlimit:1;stroke-dasharray:none;paint-order:normal"
       d="m 195.60149,155.613 h -11.41586 l -2.85861,-2.25838 -2.59311,-7.64561"
       id="path7-7-1-6" />
    <path
       style="fill:none;fill-opacity:1;stroke:#000000;stroke-width:0.568406;stroke-linecap:square;stroke-linejoin:miter;stroke-miterlimit:1;stroke-dasharray:none;paint-order:normal"
       d="m 195.07935,152.37671 h -1.77954 l -3.61641,-7.01222"
       id="path14-2-2" />
    <path
       style="fill:none;stroke:#000000;stroke-width:0.3932;stroke-linecap:square;stroke-linejoin:miter;stroke-miterlimit:1;paint-order:normal"
       d="m 89.968183,172.44087 v 3.43616 l 6.1903,22.79986 v 3.45605 h -13.24441 v -4.17274 l -4.99268,-21.48901 h -36.93861 l -0.006,-3.97333 z"
       id="path2-5-2"
       sodipodi:nodetypes="cccccccccc" />
    <path
       style="fill:none;stroke:#000000;stroke-width:0.3932;stroke-linecap:square;stroke-linejoin:miter;stroke-miterlimit:1;paint-order:normal"
       d="m 75.775633,158.62197 h 20.47887 l 3.799797,4.38224 h 9.60458 l 3.61291,-4.35371 h 11.51143 v 13.69043 l -48.991097,0.0419 z"
       id="path2-5-3-6"
       sodipodi:nodetypes="ccccccccc" />
    <path
       style="fill:none;fill-opacity:1;stroke:#000000;stroke-width:0.568406;stroke-linecap:square;stroke-linejoin:miter;stroke-miterlimit:1;stroke-dasharray:none;paint-order:normal"
       d="m 79.562913,185.15687 h -10.20876 l -2.55634,-1.9325 -2.31893,-6.54235"
       id="path7-9-1" />
    <path
       style="fill:none;fill-opacity:1;stroke:#000000;stroke-width:0.649786;stroke-linecap:square;stroke-linejoin:miter;stroke-miterlimit:1;stroke-dasharray:none;paint-order:normal"
       d="m 79.901853,186.68752 h -11.41586 l -2.85862,-2.25838 -2.59311,-7.64561"
       id="path7-7-1-8" />
    <path
       style="fill:none;fill-opacity:1;stroke:#000000;stroke-width:0.568406;stroke-linecap:square;stroke-linejoin:miter;stroke-miterlimit:1;stroke-dasharray:none;paint-order:normal"
       d="m 79.379713,183.45123 h -1.77954 l -3.61642,-7.01222"
       id="path14-2-7" />
    <rect
       style="fill:none;stroke:#000000;stroke-width:0.473277;stroke-linecap:round;stroke-miterlimit:1"
       id="rect1-9"
       width="54.784908"
       height="11.096839"
       x="-33.525181"
       y="148.99083"
       transform="rotate(-14.140947)" />
    <path
       style="fill:none;stroke:#000000;stroke-width:0.473277;stroke-linecap:round;stroke-miterlimit:1"
       d="m 42.276793,172.46811 0.85284,-0.95474 h 32.47515"
       id="path1-2" />
    <path
       style="fill:none;stroke:#000000;stroke-width:0.473277;stroke-linecap:round;stroke-miterlimit:1"
       d="m 51.815303,169.34744 -15.844163,-11.51115 1.319687,3.41566"
       id="path8-0" />
    <path
       style="fill:none;stroke:#000000;stroke-width:0.906657;stroke-linecap:round;stroke-miterlimit:1"
       d="m 146.66919,92.825882 h 21.97823 l -0.0878,-50.737154 h 7.20992 l 0.0365,-5.673193 -38.47635,0.158888 v 5.408384 l 8.83029,0.03775 z"
       id="path10"
       sodipodi:nodetypes="ccccccccc" />
    <path
       style="fill:none;stroke:#000000;stroke-width:0.906657;stroke-linecap:round;stroke-miterlimit:1"
       d="M 137.67037,36.107326 V 11.325387 l 3.98017,-4.8523831 h 29.86925 l 4.23647,4.2284751 0.037,25.745814"
       id="path11"
       sodipodi:nodetypes="cccccc" />
    <path
       style="fill:none;stroke:#000000;stroke-width:1;stroke-linecap:round;stroke-miterlimit:1"
       d="m 151.84148,36.445859 1.88425,-3.26363 h 7.13529 l 1.68671,2.921468"
       id="path12" />
    <path
       style="fill:none;stroke:#000000;stroke-width:0.940276;stroke-linecap:round;stroke-miterlimit:1"
       d="M 141.23136,36.420874 V 10.129719 h 31.32014 v 26.249389"
       id="path13" />
    <path
       style="fill:none;stroke:#000000;stroke-width:1;stroke-linecap:round;stroke-miterlimit:1"
       d="m 153.59869,32.799681 c -4.14289,-2.713999 -6.66954,-6.047862 -7.08257,-9.478446 0.7691,-6.684673 4.89642,-10.8642 10.56566,-11.631794 7.02213,0.961394 10.11548,5.86405 10.96607,11.219895 -0.84522,5.207765 -4.46818,7.601415 -7.76029,9.963825 z"
       id="path15"
       sodipodi:nodetypes="cccccc" />
    <path
       style="fill:none;stroke:#000000;stroke-width:1;stroke-linecap:round;stroke-miterlimit:1"
       d="M 146.06283,42.029864 H 169.1121"
       id="path16" />
    <path
       style="fill:none;stroke:#000000;stroke-width:0.906657;stroke-linecap:round;stroke-miterlimit:1"
       d="m 195.69624,92.788413 h 21.97823 l -0.0878,-50.737154 h 7.20992 l 0.0365,-5.673193 -38.47635,0.158888 v 5.408384 l 8.83029,0.03775 z"
       id="path10-7"
       sodipodi:nodetypes="ccccccccc" />
    <path
       style="fill:none;stroke:#000000;stroke-width:0.906657;stroke-linecap:round;stroke-miterlimit:1"
       d="M 186.69742,36.069857 V 11.287918 l 3.98017,-4.8523835 h 29.86925 l 4.23647,4.2284755 0.037,25.745814"
       id="path11-8"
       sodipodi:nodetypes="cccccc" />
    <path
       style="fill:none;stroke:#000000;stroke-width:1;stroke-linecap:round;stroke-miterlimit:1"
       d="m 200.86853,36.40839 1.88425,-3.26363 h 7.13529 l 1.68671,2.921468"
       id="path12-4" />
    <path
       style="fill:none;stroke:#000000;stroke-width:0.940276;stroke-linecap:round;stroke-miterlimit:1"
       d="M 190.25841,36.383405 V 10.09225 h 31.32014 v 26.249389"
       id="path13-5" />
    <path
       style="fill:none;stroke:#000000;stroke-width:1;stroke-linecap:round;stroke-miterlimit:1"
       d="m 202.62574,32.762212 c -4.14289,-2.713999 -6.66954,-6.047862 -7.08257,-9.478446 0.7691,-6.684673 4.89642,-10.8642 10.56566,-11.631794 7.02213,0.961394 10.11548,5.86405 10.96607,11.219895 -0.84522,5.207765 -4.46818,7.601415 -7.76029,9.963825 z"
       id="path15-0"
       sodipodi:nodetypes="cccccc" />
    <path
       style="fill:none;stroke:#000000;stroke-width:1;stroke-linecap:round;stroke-miterlimit:1"
       d="m 195.08988,41.992395 h 23.04927"
       id="path16-3" />
    <path
       style="fill:none;stroke:#000000;stroke-width:1;stroke-linecap:round;stroke-miterlimit:1"
       d="m 203.19535,57.461192 h 7.49559 V 42.140618 h -7.35873 z"
       id="path17" />
    <path
       style="fill:none;stroke:#000000;stroke-width:1;stroke-linecap:round;stroke-miterlimit:1"
       d="m 203.55942,54.850611 h 7.04806"
       id="path18" />
    <path
       style="fill:none;stroke:#000000;stroke-width:1;stroke-linecap:butt;stroke-miterlimit:1"
       d="m 205.75595,140.04366 h 14.54154 v -10.97951 h -14.40161"
       id="path19" />
    <path
       style="fill:none;stroke:#000000;stroke-width:1;stroke-linecap:round;stroke-miterlimit:1"
       d="m 192.59967,129.33274 c -0.37809,0 -13.61559,0 -13.61559,0"
       id="path20" />
    <path
       style="fill:none;stroke:#000000;stroke-width:1;stroke-linecap:round;stroke-miterlimit:1;stroke-linejoin:miter"
       d="m 207.50756,141.79791 h 12.18591 l -3.45934,1.99726"
       id="path21" />
    <path
       style="fill:none;stroke:#000000;stroke-width:1;stroke-linecap:round;stroke-linejoin:miter;stroke-miterlimit:1"
       d="m 153.95258,140.30125 -3.30856,4.30444 1.26572,-5.90241 -4.90572,2.93353 4.34509,-6.32857 -9.76161,-1.84392 10.44896,-0.3613 -3.27901,-8.25189 4.37958,5.42222 1.58383,-7.74974 0.14642,7.13535"
       id="path22" />
    <path
       style="fill:none;fill-opacity:1;stroke:none;stroke-width:11.4499;stroke-linecap:square;stroke-linejoin:miter;stroke-miterlimit:1;stroke-dasharray:none;stroke-opacity:1;paint-order:normal"
       d="M 33.114365,76.263385 V 26.340972 h 85.236195 85.23619 l 1.90166,2.132364 c 1.04591,1.172801 8.22497,8.624821 15.95347,16.560046 l 14.05181,14.427681 41.6585,-0.128296 41.65851,-0.128297 12.15055,-13.045053 c 6.68281,-7.174779 12.50575,-13.118053 12.93987,-13.207275 0.43412,-0.08922 0.78931,-0.489381 0.78931,-0.889242 0,-0.399862 0.93187,-1.737985 2.07083,-2.973608 l 2.07084,-2.246587 h 47.34984 47.34985 V 76.514252 126.1858 H 238.32308 33.114365 Z"
       id="path23"
       transform="matrix(0.26458333,0,0,0.26458333,0,0.43126581)" />
    <path
       style="fill:#3b3b3b;fill-opacity:1;stroke:#050505;stroke-width:1.8897638;stroke-linecap:square;stroke-linejoin:miter;stroke-miterlimit:1;stroke-dasharray:none;stroke-opacity:1;paint-order:normal"
       d="M 19.512826,76.277413 V 35.300477 h 4.908568 4.908568 l 0.235723,26.134821 c 0.129647,14.374151 0.235723,32.813772 0.235723,40.976932 v 14.84212 h -5.144291 -5.144291 z"
       id="path24"
       transform="matrix(0.26458333,0,0,0.26458333,0,0.43126581)" />
    <path
       style="fill:#3b3b3b;fill-opacity:1;stroke:#050505;stroke-width:3.77952761;stroke-linecap:square;stroke-linejoin:miter;stroke-miterlimit:1;stroke-dasharray:none;stroke-opacity:1;paint-order:normal"
       d="m 225.98499,44.436028 -11.0977,-11.441612 30.71457,-0.09065 c 16.89301,-0.04986 44.63511,-0.04986 61.64912,0 l 30.93455,0.09065 -10.5954,11.435257 -10.59539,11.435258 -39.95603,0.0064 -39.95602,0.0064 z"
       id="path25"
       transform="matrix(0.26458333,0,0,0.26458333,0,0.43126581)" />
    <path
       style="fill:#3b3b3b;fill-opacity:1;stroke:#050505;stroke-width:1.3409;stroke-linecap:square;stroke-linejoin:miter;stroke-miterlimit:1;stroke-dasharray:none;stroke-opacity:1;paint-order:normal"
       d="M 447.02112,75.745245 V 34.59092 h 7.27296 7.27296 v 41.154325 41.154325 h -7.27296 -7.27296 z"
       id="path26"
       transform="matrix(0.26458333,0,0,0.26458333,0,0.43126581)" />
    <path
       style="fill:#3b3b3b;fill-opacity:1;stroke:#050505;stroke-width:1.3409;stroke-linecap:square;stroke-linejoin:miter;stroke-miterlimit:1;stroke-dasharray:none;stroke-opacity:1;paint-order:normal"
       d="m 577.42516,117.56278 c -8.39338,-6.23569 -15.31767,-14.13839 -18.61068,-21.240373 -1.31794,-2.842373 -2.87631,-8.167725 -2.87631,-9.829065 0,-1.984181 1.36058,-8.145893 2.65935,-12.043506 5.10083,-15.30763 16.23163,-25.640987 31.28546,-29.044076 3.60902,-0.815861 3.61327,-0.815967 6.93078,-0.173462 9.26244,1.793863 16.43147,5.48968 22.67407,11.689044 6.18212,6.139312 10.16168,13.514083 12.55079,23.258636 1.12013,4.568719 1.05385,5.966043 -0.51003,10.751691 -3.06581,9.381741 -9.05054,16.716191 -20.77908,25.465351 l -5.42961,4.05034 -12.00753,-0.001 -12.00753,-0.001 z"
       id="path27"
       transform="matrix(0.26458333,0,0,0.26458333,0,0.43126581)" />
    <path
       style="fill:#3b3b3b;fill-opacity:1;stroke:#050505;stroke-width:1.3409;stroke-linecap:square;stroke-linejoin:miter;stroke-miterlimit:1;stroke-dasharray:none;stroke-opacity:1;paint-order:normal"
       d="m 771.98761,120.10943 -5.8646,-0.19424 -1.94053,-1.40384 c -11.34231,-8.20542 -18.39167,-16.80999 -21.66632,-26.446287 -1.34837,-3.967827 -1.46428,-6.449447 -0.51368,-10.998138 3.8705,-18.520659 15.59833,-31.432887 32.31437,-35.577797 l 4.37446,-1.084692 3.12824,0.611121 c 9.44572,1.845276 17.04431,5.745874 23.18945,11.903865 6.18371,6.196649 10.30642,14.138435 12.53385,24.144558 0.76655,3.443524 0.79194,3.881843 0.3391,5.853848 -2.75834,12.011972 -9.02898,20.099982 -24.02242,30.984662 l -3.50551,2.54487 -6.2509,-0.0718 c -3.438,-0.0395 -8.88997,-0.15925 -12.11551,-0.26609 z"
       id="path28"
       transform="matrix(0.26458333,0,0,0.26458333,0,0.43126581)" />
    <path
       style="fill:#ff0000;fill-opacity:1;stroke:#003d05;stroke-width:1.3417323;stroke-linecap:square;stroke-linejoin:miter;stroke-miterlimit:1;stroke-dasharray:none;stroke-opacity:1;paint-order:normal"
       d="m 342.24936,208.16638 c -0.0847,-0.14635 -6.18624,-10.72318 -13.55907,-23.50409 -7.37283,-12.7809 -13.63753,-23.59721 -13.92157,-24.03625 l -0.51643,-0.79825 h 13.99035 13.99035 l 6.15665,23.68147 c 3.38616,13.02482 6.22756,23.96087 6.31422,24.30234 0.14559,0.57371 -0.31556,0.62086 -6.07151,0.62086 -3.42598,0 -6.29833,-0.11973 -6.38299,-0.26608 z"
       id="path29"
       transform="matrix(0.26458333,0,0,0.26458333,0,0.43126581)" />
    <path
       style="fill:#003d05;fill-opacity:1;stroke:#003d05;stroke-width:0.952036;stroke-linecap:square;stroke-linejoin:miter;stroke-miterlimit:1;stroke-dasharray:none;stroke-opacity:1;paint-order:normal"
       d="M 33.349194,76.277413 V 26.6084 l 84.969486,-0.0101 84.96949,-0.0101 16.31982,16.702223 16.31982,16.702223 41.15124,-0.01753 41.15124,-0.01753 5.83911,-6.208627 c 3.2115,-3.414744 8.80066,-9.455956 12.42034,-13.424914 3.61968,-3.968959 6.98035,-7.241792 7.46817,-7.272963 0.48782,-0.03117 0.88695,-0.472989 0.88695,-0.981819 0,-0.508829 1.05293,-1.945683 2.33984,-3.193008 l 2.33984,-2.267863 h 46.9744 46.97439 V 76.277413 125.94643 H 238.41126 33.349194 Z"
       id="path30"
       transform="matrix(0.26458333,0,0,0.26458333,0,0.43126581)" />
    <path
       style="fill:#003d05;fill-opacity:1;stroke:#003d05;stroke-width:0.673191;stroke-linecap:square;stroke-linejoin:miter;stroke-miterlimit:1;stroke-dasharray:none;stroke-opacity:1;paint-order:normal"
       d="m 387.83945,335.37539 v -14.58324 l -21.14606,-81.37316 c -11.63034,-44.75524 -21.48675,-81.76827 -21.90314,-82.25119 -0.69145,-0.80192 -2.13921,-0.87803 -16.70095,-0.87803 -15.63212,0 -15.95026,-0.0201 -16.27028,-1.02841 l -0.32641,-1.0284 -1.74301,1.0284 -1.74302,1.02841 H 170.56047 33.114365 V 142.99385 129.69793 H 238.32308 443.53179 v 12.07857 12.07857 l 26.09011,85.82345 26.0901,85.82345 v 12.22833 12.22833 h -53.93627 -53.93628 z"
       id="path31"
       transform="matrix(0.26458333,0,0,0.26458333,0,0.43126581)" />
    <path
       style="fill:#003d05;fill-opacity:1;stroke:#003d05;stroke-width:0.336596;stroke-linecap:square;stroke-linejoin:miter;stroke-miterlimit:1;stroke-dasharray:none;stroke-opacity:1;paint-order:normal"
       d="m 253.35721,224.4012 -11.37097,-8.02652 -10.73734,-28.27745 c -5.90553,-15.5526 -10.73734,-28.3097 -10.73734,-28.34911 0,-0.0394 1.55662,-0.0717 3.45916,-0.0717 h 3.45915 l 9.61875,24.27133 c 5.29032,13.34923 9.88908,24.85275 10.21947,25.56338 0.59203,1.2734 0.75914,1.39872 11.56971,8.67689 6.03296,4.06166 11.13835,7.48782 11.34531,7.6137 0.22094,0.13437 18.75029,0.28065 44.87938,0.3543 l 44.50308,0.12543 0.80735,3.07311 0.80734,3.07312 h -48.22604 -48.22604 z"
       id="path32"
       transform="matrix(0.26458333,0,0,0.26458333,0,0.43126581)" />
    <path
       style="fill:#003d05;fill-opacity:1;stroke:#003d05;stroke-width:0.952036;stroke-linecap:square;stroke-linejoin:miter;stroke-miterlimit:1;stroke-dasharray:none;stroke-opacity:1;paint-order:normal"
       d="m 556.05477,311.67306 c -0.25504,-19.6104 -0.63736,-60.72037 -0.84961,-91.35551 -0.21225,-30.63514 -0.53706,-56.89763 -0.72179,-58.36109 l -0.33587,-2.66084 h 40.45315 40.45316 v 94.01635 94.01634 h -39.26767 -39.26767 z"
       id="path33"
       transform="matrix(0.26458333,0,0,0.26458333,0,0.43126581)" />
    <path
       style="fill:#003d05;fill-opacity:1;stroke:#003d05;stroke-width:0.952036;stroke-linecap:square;stroke-linejoin:miter;stroke-miterlimit:1;stroke-dasharray:none;stroke-opacity:1;paint-order:normal"
       d="m 580.95006,155.21572 -60.13498,-0.18546 v -8.03928 -8.03929 l 50.55596,-0.47085 c 27.80577,-0.25897 59.77309,-0.47109 71.03849,-0.47139 l 20.48252,-5.5e-4 -0.42784,1.5965 c -0.23532,0.87808 -0.43221,4.86934 -0.43754,8.86947 l -0.01,7.27296 -10.46598,-0.17333 c -5.75628,-0.0953 -37.52671,-0.25678 -70.60095,-0.35878 z"
       id="path34"
       transform="matrix(0.26458333,0,0,0.26458333,0,0.43126581)" />
    <path
       style="fill:#003d05;fill-opacity:1;stroke:#003d05;stroke-width:0.673191;stroke-linecap:square;stroke-linejoin:miter;stroke-miterlimit:1;stroke-dasharray:none;stroke-opacity:1;paint-order:normal"
       d="M 522.30384,88.340053 V 41.964847 l 6.92159,-8.439104 6.92158,-8.439103 55.6613,-0.127638 55.6613,-0.127637 7.40884,7.396489 7.40884,7.39649 v 47.294591 47.294585 h -4.01386 -4.01386 V 85.372339 c 0,-46.679351 -0.0406,-48.877941 -0.91754,-49.671548 -0.84292,-0.762828 -5.75372,-0.830362 -60.38104,-0.830362 -56.97008,0 -59.49832,0.03847 -60.29386,0.91754 -0.76073,0.840596 -0.83037,5.026954 -0.83037,49.922413 v 49.004878 h -4.76646 -4.76646 z"
       id="path35"
       transform="matrix(0.26458333,0,0,0.26458333,0,0.43126581)" />
    <path
       style="fill:#003d05;fill-opacity:1;stroke:#003d05;stroke-width:0.673191;stroke-linecap:square;stroke-linejoin:miter;stroke-miterlimit:1;stroke-dasharray:none;stroke-opacity:1;paint-order:normal"
       d="m 714.8438,154.89787 -8.40402,-0.13756 v -8.26646 -8.26646 l 41.76925,-4.8e-4 c 22.97309,-2.6e-4 54.80804,-0.15014 70.74433,-0.33306 l 28.97507,-0.33258 10e-6,8.73708 2e-5,8.73708 h -62.34032 c -34.28717,0 -66.12212,-0.0619 -70.74434,-0.13756 z"
       id="path36"
       transform="matrix(0.26458333,0,0,0.26458333,0,0.43126581)" />
    <path
       style="fill:#003d05;fill-opacity:1;stroke:#003d05;stroke-width:0.673191;stroke-linecap:square;stroke-linejoin:miter;stroke-miterlimit:1;stroke-dasharray:none;stroke-opacity:1;paint-order:normal"
       d="M 707.44324,88.364056 V 42.012861 l 7.04827,-8.588544 7.04827,-8.588544 h 55.54917 55.54917 l 7.35687,7.400559 7.35687,7.400559 0.3578,47.03745 0.3578,47.037449 h -4.33425 -4.33424 V 84.870606 c 0,-46.679351 -0.0406,-48.87794 -0.91754,-49.671548 -0.84287,-0.762785 -5.73561,-0.830361 -60.12048,-0.830361 h -59.20293 l -1.09093,1.161236 -1.09092,1.161236 v 49.012043 49.012048 h -4.76646 -4.76647 z"
       id="path37"
       transform="matrix(0.26458333,0,0,0.26458333,0,0.43126581)" />
    <path
       style="fill:#003d05;fill-opacity:1;stroke:#003d05;stroke-width:0.673191;stroke-linecap:square;stroke-linejoin:miter;stroke-miterlimit:1;stroke-dasharray:none;stroke-opacity:1;paint-order:normal"
       d="m 741.56176,344.31413 c 0.002,-7.70246 -1.49662,-153.67492 -1.72559,-168.08049 l -0.26914,-16.93348 h 13.33361 13.3336 l -0.14207,28.30391 c -0.11467,22.84273 -0.0145,28.45761 0.51903,29.10051 0.57629,0.69437 2.54242,0.79659 15.32304,0.79659 13.56703,0 14.72392,-0.0685 15.49228,-0.91754 0.75191,-0.83086 0.83036,-3.58006 0.83036,-29.1005 v -28.18297 h 11.03812 11.03812 v 25.2543 c 0,13.88986 0.15025,56.11067 0.33388,93.82403 l 0.33388,68.56974 h -39.7199 -39.71991 z"
       id="path38"
       transform="matrix(0.26458333,0,0,0.26458333,0,0.43126581)" />
    <path
       style="fill:#003d05;fill-opacity:1;stroke:#003d05;stroke-width:0.673191;stroke-linecap:square;stroke-linejoin:miter;stroke-miterlimit:1;stroke-dasharray:none;stroke-opacity:1;paint-order:normal"
       d="m 770.32886,188.02437 c 0.18203,-8.48556 0.33135,-18.30698 0.33183,-21.82538 l 8.9e-4,-6.39709 h 11.79072 11.79072 v 21.82537 21.82538 h -12.12255 -12.12256 z"
       id="path39"
       transform="matrix(0.26458333,0,0,0.26458333,0,0.43126581)" />
    <path
       style="fill:#003d05;fill-opacity:1;stroke:#003d05;stroke-width:0.673191;stroke-linecap:square;stroke-linejoin:miter;stroke-miterlimit:1;stroke-dasharray:none;stroke-opacity:1;paint-order:normal"
       d="m 770.15984,210.72777 v -2.75953 h 12.04159 12.04159 v 2.75953 2.75954 h -12.04159 -12.04159 z"
       id="path40"
       transform="matrix(0.26458333,0,0,0.26458333,0,0.43126581)" />
    <path
       style="fill:#6a6a6a;fill-opacity:1;stroke:none;stroke-width:0.476018;stroke-linecap:square;stroke-linejoin:miter;stroke-miterlimit:1;stroke-dasharray:none;stroke-opacity:1;paint-order:normal"
       d="m 577.90952,133.36659 c 0.45307,-0.76391 1.62108,-2.78791 2.59557,-4.49779 l 1.7718,-3.10886 12.26931,0.0932 12.26931,0.0933 2.39154,4.16864 2.39154,4.16865 h -10.74396 c -5.90918,0 -13.67457,0.10616 -17.25642,0.2359 l -6.51245,0.2359 z"
       id="path50"
       transform="matrix(0.26458333,0,0,0.26458333,0,0.43126581)" />
    <path
       style="fill:#6a6a6a;fill-opacity:1;stroke:none;stroke-width:0.336596;stroke-linecap:square;stroke-linejoin:miter;stroke-miterlimit:1;stroke-dasharray:none;stroke-opacity:1;paint-order:normal"
       d="m 762.67566,134.11289 c 0.046,-0.12433 1.15608,-2.09912 2.46686,-4.38843 l 2.38323,-4.16237 12.27838,0.061 12.27838,0.061 2.46002,4.2346 c 1.35301,2.32903 2.46002,4.27638 2.46002,4.32744 0,0.0511 -7.74237,0.0928 -17.20526,0.0928 -10.10621,0 -17.17075,-0.0933 -17.12163,-0.22607 z"
       id="path51"
       transform="matrix(0.26458333,0,0,0.26458333,0,0.43126581)" />
  </g>
  <g
     inkscape:groupmode="layer"
     id="layer3"
     inkscape:label="pintura" />
</svg>
